<svg width="224" height="40" viewBox="0 0 224 40" fill="none" xmlns="http://www.w3.org/2000/svg">
<path d="M13.8221 3.80178H0V39.0978H13.8221C18.5943 39.0978 22.5711 37.3842 25.7569 34.005C28.9899 30.6259 30.5806 26.4401 30.5806 21.4476C30.5806 16.4552 28.9899 12.2693 25.7569 8.89016C22.5754 5.51099 18.5986 3.79742 13.8221 3.79742V3.80178ZM21.1824 29.4181C19.2951 31.4369 16.8574 32.4441 13.8221 32.4441H6.86162V10.4598H13.8221C16.8531 10.4598 19.2908 11.4671 21.1824 13.5338C23.0698 15.5526 24.0157 18.1731 24.0157 21.452C24.0157 24.7309 23.0698 27.3513 21.1824 29.4181Z" fill="#209547"/>
<path d="M42.3133 24.526H55.4905V17.9725H42.3133V10.4599H56.733V3.80182H35.4517V39.0978H56.9824V32.4441H42.3133V24.526Z" fill="#209547"/>
<path d="M74.7813 3.80182H61.8061V39.0978H68.6677V27.4996H74.7813C78.1132 27.4996 80.9464 26.3398 83.2336 24.0725C85.5208 21.8052 86.6644 18.9798 86.6644 15.6529C86.6644 12.3261 85.5208 9.50063 83.2336 7.23331C80.9464 4.966 78.1132 3.80618 74.7813 3.80618V3.80182ZM74.7813 20.9985H68.6677V10.3073H74.7813C77.7134 10.3073 79.8544 12.5746 79.8544 15.6529C79.8544 18.7312 77.7177 20.9985 74.7813 20.9985Z" fill="#209547"/>
<path d="M109.786 20.7456H91.14V26.9982H109.786V20.7456Z" fill="#209547"/>
<path d="M123.109 24.526H136.286V17.9725H123.109V10.4599H137.529V3.80182H116.248V39.0978H137.778V32.4441H123.109V24.526Z" fill="#209547"/>
<path d="M158.862 9.85378C162.839 9.85378 166.171 11.72 167.912 14.8986L173.828 11.4191C170.844 6.32636 165.178 3.09979 158.862 3.09979C153.643 3.09979 149.318 4.86568 145.887 8.3931C142.456 11.8726 140.766 16.2589 140.766 21.452C140.766 26.645 142.456 30.9834 145.887 34.5108C149.318 38.0383 153.643 39.8041 158.862 39.8041C165.225 39.8041 170.844 36.5776 173.828 31.4848L167.912 28.0054C166.27 31.0793 162.839 32.9978 158.862 32.9978C155.483 32.9978 152.748 31.9383 150.659 29.7713C148.621 27.6042 147.576 24.8311 147.576 21.452C147.576 18.0728 148.621 15.2517 150.659 13.0803C152.748 10.9133 155.483 9.85378 158.862 9.85378Z" fill="#209547"/>
<path d="M194.911 39.8041C199.137 39.8041 202.83 38.5484 205.999 36.05C201.205 38.3914 196.158 39.3158 192.641 39.6733C193.381 39.7562 194.133 39.8041 194.907 39.8041H194.911Z" fill="#209547"/>
<path d="M189 31.4369C188.252 30.9834 187.551 30.4253 186.902 29.7713C184.765 27.6042 183.669 24.8311 183.669 21.452C183.669 18.0728 184.761 15.2997 186.902 13.1327C189.043 10.9656 191.725 9.85378 194.907 9.85378C198.088 9.85378 200.775 10.9613 202.912 13.1327C204.344 14.5846 205.307 16.3156 205.788 18.3126C208.088 17.4972 210.371 16.9435 212.418 16.5685C211.64 13.5033 210.088 10.7956 207.736 8.44543C204.206 4.86568 199.928 3.09979 194.907 3.09979C189.885 3.09979 185.608 4.86568 182.078 8.44543C178.548 12.0252 176.859 16.3113 176.859 21.4563C176.859 26.6014 178.6 30.9355 182.078 34.5152C183.161 35.5965 184.314 36.5122 185.539 37.2665L185.969 36.3683C186.055 36.1852 187.056 34.1446 188.995 31.4456L189 31.4369Z" fill="#209547"/>
<path d="M220.07 15.7793C219.8 15.7793 216.614 15.7967 212.422 16.5641C212.813 18.1033 213.011 19.7297 213.011 21.4476C213.892 21.2819 214.735 21.1467 215.505 21.0464C214.761 22.1191 213.845 23.3268 212.779 24.5521C212.203 28.3585 210.535 31.6679 207.74 34.5021C207.181 35.0602 206.601 35.5703 206.003 36.0412C206.687 35.7055 207.366 35.348 208.037 34.9512C217.048 29.6361 222.027 19.7427 222.237 19.3241L224 15.7706H220.079L220.07 15.7793Z" fill="#209547"/>
<path d="M202.8 25.0448C203.828 24.4387 204.907 23.9199 206.003 23.4708C206.098 22.8255 206.145 22.154 206.145 21.452C206.145 20.3401 206.025 19.2937 205.788 18.3126C203.957 18.9623 202.112 19.7733 200.371 20.7979C195.135 23.8806 191.369 28.1493 189.004 31.4369C190.47 32.3307 192.125 32.8322 193.957 32.9586C196.029 30.3294 198.983 27.286 202.8 25.0404V25.0448Z" fill="#209547"/>
<path d="M206.145 21.452C206.145 22.1496 206.094 22.8211 206.003 23.4707C208.376 22.4984 210.827 21.8662 213.007 21.4563C213.007 19.7384 212.809 18.112 212.418 16.5729C210.376 16.9479 208.093 17.5016 205.788 18.317C206.025 19.298 206.145 20.3445 206.145 21.4563V21.452Z" fill="#209547"/>
<path d="M212.775 24.5609C210.861 26.7671 208.45 29.0432 205.595 30.7218C201.214 33.3075 196.162 34.3277 192.637 34.7289C193.028 34.1751 193.467 33.5778 193.953 32.963C192.121 32.8366 190.466 32.3308 189 31.4413C187.061 34.1403 186.059 36.1808 185.973 36.364L185.543 37.2622C187.693 38.579 190.057 39.3812 192.641 39.6777C196.158 39.3202 201.205 38.3958 205.999 36.0544C206.597 35.5835 207.177 35.0733 207.736 34.5152C210.53 31.6811 212.199 28.3717 212.775 24.5652V24.5609Z" fill="#209547"/>
<path d="M216.102 0.195923C216.102 0.195923 209.959 5.68108 213.377 13.0891C213.377 13.0891 218.686 9.35239 216.102 0.195923Z" fill="#209547"/>
<path d="M215.307 14.1399C215.307 14.1399 219.77 15.6268 223.88 10.098C223.88 10.098 218.05 8.88586 215.307 14.1399Z" fill="#209547"/>
</svg>
