<svg width="1778" height="538" viewBox="0 0 1778 538" fill="none" xmlns="http://www.w3.org/2000/svg">
<path opacity="0.2" d="M456.201 726.213C461.358 726.213 464.573 726.152 465.422 726.091L531 724.024L502.245 664.931C498.848 657.939 416.891 492.211 249.579 394.998C101.74 309.034 -87.2286 308 -96.0855 308H-165L-134.061 369.708C-130.421 376.942 -43.0044 548.568 115.147 640.734C252.855 720.984 415.617 726.274 456.201 726.274V726.213Z" fill="#D9F7E3"/>
<g opacity="0.2">
<path d="M1156.8 688.51C1151.64 688.51 1148.43 688.449 1147.58 688.388L1082 686.321L1110.75 627.228C1114.15 620.236 1196.11 454.507 1363.42 357.295C1511.26 271.33 1700.23 270.297 1709.09 270.297H1778L1747.06 332.004C1743.42 339.239 1656 510.865 1497.85 603.031C1360.15 683.281 1197.38 688.57 1156.8 688.57V688.51Z" fill="#D9F7E3"/>
<path d="M1639.5 0C1639.5 0 1531.7 95.1451 1591.64 223.606C1591.64 223.606 1684.82 158.798 1639.5 0Z" fill="#D9F7E3"/>
<path d="M1776 171.687C1776 171.687 1673.66 150.651 1625.55 241.784C1625.55 241.784 1703.87 267.561 1776 171.687Z" fill="#D9F7E3"/>
</g>
<path d="M1328.3 378C1330.84 378 1332.89 380.054 1332.89 382.596C1332.89 385.138 1330.84 387.192 1328.3 387.192C1325.76 387.192 1323.71 385.138 1323.71 382.596C1323.71 380.054 1325.76 378 1328.3 378Z" fill="#82E3A2"/>
<path d="M1308.03 378C1310.57 378 1312.62 380.054 1312.62 382.596C1312.62 385.138 1310.57 387.192 1308.03 387.192C1305.49 387.192 1303.43 385.138 1303.43 382.596C1303.43 380.054 1305.49 378 1308.03 378Z" fill="#82E3A2"/>
<path d="M1287.74 378C1290.28 378 1292.34 380.054 1292.34 382.596C1292.34 385.138 1290.28 387.192 1287.74 387.192C1285.2 387.192 1283.15 385.138 1283.15 382.596C1283.15 380.054 1285.2 378 1287.74 378Z" fill="#82E3A2"/>
<path d="M1267.46 378C1270 378 1272.05 380.054 1272.05 382.596C1272.05 385.138 1270 387.192 1267.46 387.192C1264.92 387.192 1262.87 385.138 1262.87 382.596C1262.87 380.054 1264.92 378 1267.46 378Z" fill="#82E3A2"/>
<path d="M1247.19 378C1249.73 378 1251.78 380.054 1251.78 382.596C1251.78 385.138 1249.73 387.192 1247.19 387.192C1244.65 387.192 1242.6 385.138 1242.6 382.596C1242.6 380.054 1244.65 378 1247.19 378Z" fill="#82E3A2"/>
<path d="M1226.91 378C1229.45 378 1231.5 380.054 1231.5 382.596C1231.5 385.138 1229.45 387.192 1226.91 387.192C1224.37 387.192 1222.31 385.138 1222.31 382.596C1222.31 380.054 1224.37 378 1226.91 378Z" fill="#82E3A2"/>
<path d="M1328.3 418.595C1330.84 418.595 1332.89 420.648 1332.89 423.191C1332.89 425.733 1330.84 427.786 1328.3 427.786C1325.76 427.786 1323.71 425.733 1323.71 423.191C1323.71 420.648 1325.76 418.595 1328.3 418.595Z" fill="#82E3A2"/>
<path d="M1308.03 418.595C1310.57 418.595 1312.62 420.648 1312.62 423.191C1312.62 425.733 1310.57 427.786 1308.03 427.786C1305.49 427.786 1303.43 425.733 1303.43 423.191C1303.43 420.648 1305.49 418.595 1308.03 418.595Z" fill="#82E3A2"/>
<path d="M1287.74 418.595C1290.28 418.595 1292.34 420.648 1292.34 423.191C1292.34 425.733 1290.28 427.786 1287.74 427.786C1285.2 427.786 1283.15 425.733 1283.15 423.191C1283.15 420.648 1285.2 418.595 1287.74 418.595Z" fill="#82E3A2"/>
<path d="M1267.46 418.595C1270 418.595 1272.05 420.648 1272.05 423.191C1272.05 425.733 1270 427.786 1267.46 427.786C1264.92 427.786 1262.87 425.733 1262.87 423.191C1262.87 420.648 1264.92 418.595 1267.46 418.595Z" fill="#82E3A2"/>
<path d="M1247.19 418.595C1249.73 418.595 1251.78 420.648 1251.78 423.191C1251.78 425.733 1249.73 427.786 1247.19 427.786C1244.65 427.786 1242.6 425.733 1242.6 423.191C1242.6 420.648 1244.65 418.595 1247.19 418.595Z" fill="#82E3A2"/>
<path d="M1226.91 418.595C1229.45 418.595 1231.5 420.648 1231.5 423.191C1231.5 425.733 1229.45 427.786 1226.91 427.786C1224.37 427.786 1222.31 425.733 1222.31 423.191C1222.31 420.648 1224.37 418.595 1226.91 418.595Z" fill="#82E3A2"/>
<path d="M1206.62 418.595C1209.16 418.595 1211.22 420.648 1211.22 423.191C1211.22 425.733 1209.16 427.786 1206.62 427.786C1204.08 427.786 1202.03 425.733 1202.03 423.191C1202.03 420.648 1204.08 418.595 1206.62 418.595Z" fill="#82E3A2"/>
<path d="M1186.34 418.595C1188.88 418.595 1190.93 420.648 1190.93 423.191C1190.93 425.733 1188.88 427.786 1186.34 427.786C1183.8 427.786 1181.75 425.733 1181.75 423.191C1181.75 420.648 1183.8 418.595 1186.34 418.595Z" fill="#82E3A2"/>
<path d="M1166.07 418.595C1168.61 418.595 1170.66 420.648 1170.66 423.191C1170.66 425.733 1168.61 427.786 1166.07 427.786C1163.53 427.786 1161.48 425.733 1161.48 423.191C1161.48 420.648 1163.53 418.595 1166.07 418.595Z" fill="#82E3A2"/>
<path d="M1145.79 418.595C1148.33 418.595 1150.38 420.648 1150.38 423.191C1150.38 425.733 1148.33 427.786 1145.79 427.786C1143.25 427.786 1141.19 425.733 1141.19 423.191C1141.19 420.648 1143.25 418.595 1145.79 418.595Z" fill="#82E3A2"/>
<path d="M1125.5 418.595C1128.04 418.595 1130.1 420.648 1130.1 423.191C1130.1 425.733 1128.04 427.786 1125.5 427.786C1122.96 427.786 1120.91 425.733 1120.91 423.191C1120.91 420.648 1122.96 418.595 1125.5 418.595Z" fill="#82E3A2"/>
<path d="M1105.23 418.595C1107.77 418.595 1109.82 420.648 1109.82 423.191C1109.82 425.733 1107.77 427.786 1105.23 427.786C1102.69 427.786 1100.64 425.733 1100.64 423.191C1100.64 420.648 1102.69 418.595 1105.23 418.595Z" fill="#82E3A2"/>
<path d="M1084.95 418.595C1087.49 418.595 1089.54 420.648 1089.54 423.191C1089.54 425.733 1087.49 427.786 1084.95 427.786C1082.41 427.786 1080.36 425.733 1080.36 423.191C1080.36 420.648 1082.41 418.595 1084.95 418.595Z" fill="#82E3A2"/>
<path d="M1308.03 459.179C1310.57 459.179 1312.62 461.242 1312.62 463.774C1312.62 466.307 1310.57 468.37 1308.03 468.37C1305.49 468.37 1303.43 466.317 1303.43 463.774C1303.43 461.232 1305.49 459.179 1308.03 459.179Z" fill="#82E3A2"/>
<path d="M1287.74 459.179C1290.28 459.179 1292.34 461.242 1292.34 463.774C1292.34 466.307 1290.28 468.37 1287.74 468.37C1285.2 468.37 1283.15 466.317 1283.15 463.774C1283.15 461.232 1285.2 459.179 1287.74 459.179Z" fill="#82E3A2"/>
<path d="M1267.46 459.179C1270 459.179 1272.05 461.242 1272.05 463.774C1272.05 466.307 1270 468.37 1267.46 468.37C1264.92 468.37 1262.87 466.317 1262.87 463.774C1262.87 461.232 1264.92 459.179 1267.46 459.179Z" fill="#82E3A2"/>
<path d="M1247.19 459.179C1249.73 459.179 1251.78 461.242 1251.78 463.774C1251.78 466.307 1249.73 468.37 1247.19 468.37C1244.65 468.37 1242.6 466.317 1242.6 463.774C1242.6 461.232 1244.65 459.179 1247.19 459.179Z" fill="#82E3A2"/>
<path d="M1226.91 459.179C1229.45 459.179 1231.5 461.242 1231.5 463.774C1231.5 466.307 1229.45 468.37 1226.91 468.37C1224.37 468.37 1222.31 466.317 1222.31 463.774C1222.31 461.232 1224.37 459.179 1226.91 459.179Z" fill="#82E3A2"/>
<path d="M1206.62 459.179C1209.16 459.179 1211.22 461.242 1211.22 463.774C1211.22 466.307 1209.16 468.37 1206.62 468.37C1204.08 468.37 1202.03 466.317 1202.03 463.774C1202.03 461.232 1204.08 459.179 1206.62 459.179Z" fill="#82E3A2"/>
<path d="M1186.34 459.179C1188.88 459.179 1190.93 461.242 1190.93 463.774C1190.93 466.307 1188.88 468.37 1186.34 468.37C1183.8 468.37 1181.75 466.317 1181.75 463.774C1181.75 461.232 1183.8 459.179 1186.34 459.179Z" fill="#82E3A2"/>
<path d="M1166.07 459.179C1168.61 459.179 1170.66 461.242 1170.66 463.774C1170.66 466.307 1168.61 468.37 1166.07 468.37C1163.53 468.37 1161.48 466.317 1161.48 463.774C1161.48 461.232 1163.53 459.179 1166.07 459.179Z" fill="#82E3A2"/>
<path d="M1145.79 459.179C1148.33 459.179 1150.38 461.242 1150.38 463.774C1150.38 466.307 1148.33 468.37 1145.79 468.37C1143.25 468.37 1141.19 466.317 1141.19 463.774C1141.19 461.232 1143.25 459.179 1145.79 459.179Z" fill="#82E3A2"/>
<path d="M1125.5 459.179C1128.04 459.179 1130.1 461.242 1130.1 463.774C1130.1 466.307 1128.04 468.37 1125.5 468.37C1122.96 468.37 1120.91 466.317 1120.91 463.774C1120.91 461.232 1122.96 459.179 1125.5 459.179Z" fill="#82E3A2"/>
<path d="M1105.23 459.179C1107.77 459.179 1109.82 461.242 1109.82 463.774C1109.82 466.307 1107.77 468.37 1105.23 468.37C1102.69 468.37 1100.64 466.317 1100.64 463.774C1100.64 461.232 1102.69 459.179 1105.23 459.179Z" fill="#82E3A2"/>
<path d="M1084.95 459.179C1087.49 459.179 1089.54 461.242 1089.54 463.774C1089.54 466.307 1087.49 468.37 1084.95 468.37C1082.41 468.37 1080.36 466.317 1080.36 463.774C1080.36 461.232 1082.41 459.179 1084.95 459.179Z" fill="#82E3A2"/>
<path d="M1287.74 499.773C1290.28 499.773 1292.34 501.827 1292.34 504.369C1292.34 506.911 1290.28 508.965 1287.74 508.965C1285.2 508.965 1283.15 506.911 1283.15 504.369C1283.15 501.827 1285.2 499.773 1287.74 499.773Z" fill="#82E3A2"/>
<path d="M1267.46 499.773C1270 499.773 1272.05 501.827 1272.05 504.369C1272.05 506.911 1270 508.965 1267.46 508.965C1264.92 508.965 1262.87 506.911 1262.87 504.369C1262.87 501.827 1264.92 499.773 1267.46 499.773Z" fill="#82E3A2"/>
<path d="M1247.19 499.773C1249.73 499.773 1251.78 501.827 1251.78 504.369C1251.78 506.911 1249.73 508.965 1247.19 508.965C1244.65 508.965 1242.6 506.911 1242.6 504.369C1242.6 501.827 1244.65 499.773 1247.19 499.773Z" fill="#82E3A2"/>
<path d="M1226.91 499.773C1229.45 499.773 1231.5 501.827 1231.5 504.369C1231.5 506.911 1229.45 508.965 1226.91 508.965C1224.37 508.965 1222.31 506.911 1222.31 504.369C1222.31 501.827 1224.37 499.773 1226.91 499.773Z" fill="#82E3A2"/>
<path d="M1206.62 499.773C1209.16 499.773 1211.22 501.827 1211.22 504.369C1211.22 506.911 1209.16 508.965 1206.62 508.965C1204.08 508.965 1202.03 506.911 1202.03 504.369C1202.03 501.827 1204.08 499.773 1206.62 499.773Z" fill="#82E3A2"/>
<path d="M1186.34 499.773C1188.88 499.773 1190.93 501.827 1190.93 504.369C1190.93 506.911 1188.88 508.965 1186.34 508.965C1183.8 508.965 1181.75 506.911 1181.75 504.369C1181.75 501.827 1183.8 499.773 1186.34 499.773Z" fill="#82E3A2"/>
<path d="M1166.07 499.773C1168.61 499.773 1170.66 501.827 1170.66 504.369C1170.66 506.911 1168.61 508.965 1166.07 508.965C1163.53 508.965 1161.48 506.911 1161.48 504.369C1161.48 501.827 1163.53 499.773 1166.07 499.773Z" fill="#82E3A2"/>
<path d="M1145.79 499.773C1148.33 499.773 1150.38 501.827 1150.38 504.369C1150.38 506.911 1148.33 508.965 1145.79 508.965C1143.25 508.965 1141.19 506.911 1141.19 504.369C1141.19 501.827 1143.25 499.773 1145.79 499.773Z" fill="#82E3A2"/>
<path d="M1125.5 499.773C1128.04 499.773 1130.1 501.827 1130.1 504.369C1130.1 506.911 1128.04 508.965 1125.5 508.965C1122.96 508.965 1120.91 506.911 1120.91 504.369C1120.91 501.827 1122.96 499.773 1125.5 499.773Z" fill="#82E3A2"/>
<path d="M1105.23 499.773C1107.77 499.773 1109.82 501.827 1109.82 504.369C1109.82 506.911 1107.77 508.965 1105.23 508.965C1102.69 508.965 1100.64 506.911 1100.64 504.369C1100.64 501.827 1102.69 499.773 1105.23 499.773Z" fill="#82E3A2"/>
<path d="M1084.95 499.773C1087.49 499.773 1089.54 501.827 1089.54 504.369C1089.54 506.911 1087.49 508.965 1084.95 508.965C1082.41 508.965 1080.36 506.911 1080.36 504.369C1080.36 501.827 1082.41 499.773 1084.95 499.773Z" fill="#82E3A2"/>
<path d="M1338.42 398.297C1340.96 398.297 1343.01 400.351 1343.01 402.893C1343.01 405.435 1340.96 407.489 1338.42 407.489C1335.88 407.489 1333.83 405.435 1333.83 402.893C1333.83 400.351 1335.88 398.297 1338.42 398.297Z" fill="#82E3A2"/>
<path d="M1318.14 398.297C1320.68 398.297 1322.73 400.351 1322.73 402.893C1322.73 405.435 1320.68 407.489 1318.14 407.489C1315.6 407.489 1313.54 405.435 1313.54 402.893C1313.54 400.351 1315.6 398.297 1318.14 398.297Z" fill="#82E3A2"/>
<path d="M1297.85 398.297C1300.39 398.297 1302.45 400.351 1302.45 402.893C1302.45 405.435 1300.39 407.489 1297.85 407.489C1295.31 407.489 1293.26 405.435 1293.26 402.893C1293.26 400.351 1295.31 398.297 1297.85 398.297Z" fill="#82E3A2"/>
<path d="M1277.58 398.297C1280.12 398.297 1282.17 400.351 1282.17 402.893C1282.17 405.435 1280.12 407.489 1277.58 407.489C1275.04 407.489 1272.99 405.435 1272.99 402.893C1272.99 400.351 1275.04 398.297 1277.58 398.297Z" fill="#82E3A2"/>
<path d="M1257.3 398.297C1259.84 398.297 1261.89 400.351 1261.89 402.893C1261.89 405.435 1259.84 407.489 1257.3 407.489C1254.76 407.489 1252.71 405.435 1252.71 402.893C1252.71 400.351 1254.76 398.297 1257.3 398.297Z" fill="#82E3A2"/>
<path d="M1237.02 398.297C1239.56 398.297 1241.61 400.351 1241.61 402.893C1241.61 405.435 1239.56 407.489 1237.02 407.489C1234.48 407.489 1232.43 405.435 1232.43 402.893C1232.43 400.351 1234.48 398.297 1237.02 398.297Z" fill="#82E3A2"/>
<path d="M1216.75 398.297C1219.29 398.297 1221.34 400.351 1221.34 402.893C1221.34 405.435 1219.29 407.489 1216.75 407.489C1214.2 407.489 1212.15 405.435 1212.15 402.893C1212.15 400.351 1214.2 398.297 1216.75 398.297Z" fill="#82E3A2"/>
<path d="M1196.46 398.297C1199 398.297 1201.06 400.351 1201.06 402.893C1201.06 405.435 1199 407.489 1196.46 407.489C1193.92 407.489 1191.87 405.435 1191.87 402.893C1191.87 400.351 1193.92 398.297 1196.46 398.297Z" fill="#82E3A2"/>
<path d="M1176.18 398.297C1178.72 398.297 1180.77 400.351 1180.77 402.893C1180.77 405.435 1178.72 407.489 1176.18 407.489C1173.64 407.489 1171.59 405.435 1171.59 402.893C1171.59 400.351 1173.64 398.297 1176.18 398.297Z" fill="#82E3A2"/>
<path d="M1155.9 398.297C1158.44 398.297 1160.49 400.351 1160.49 402.893C1160.49 405.435 1158.44 407.489 1155.9 407.489C1153.36 407.489 1151.31 405.435 1151.31 402.893C1151.31 400.351 1153.36 398.297 1155.9 398.297Z" fill="#82E3A2"/>
<path d="M1135.63 398.297C1138.17 398.297 1140.22 400.351 1140.22 402.893C1140.22 405.435 1138.17 407.489 1135.63 407.489C1133.09 407.489 1131.03 405.435 1131.03 402.893C1131.03 400.351 1133.09 398.297 1135.63 398.297Z" fill="#82E3A2"/>
<path d="M1115.34 398.297C1117.88 398.297 1119.94 400.351 1119.94 402.893C1119.94 405.435 1117.88 407.489 1115.34 407.489C1112.8 407.489 1110.75 405.435 1110.75 402.893C1110.75 400.351 1112.8 398.297 1115.34 398.297Z" fill="#82E3A2"/>
<path d="M1095.06 398.297C1097.6 398.297 1099.65 400.351 1099.65 402.893C1099.65 405.435 1097.6 407.489 1095.06 407.489C1092.52 407.489 1090.47 405.435 1090.47 402.893C1090.47 400.351 1092.52 398.297 1095.06 398.297Z" fill="#82E3A2"/>
<path d="M1074.79 398.297C1077.33 398.297 1079.38 400.351 1079.38 402.893C1079.38 405.435 1077.33 407.489 1074.79 407.489C1072.25 407.489 1070.2 405.435 1070.2 402.893C1070.2 400.351 1072.25 398.297 1074.79 398.297Z" fill="#82E3A2"/>
<path d="M1318.14 438.882C1320.68 438.882 1322.73 440.935 1322.73 443.478C1322.73 446.02 1320.68 448.073 1318.14 448.073C1315.6 448.073 1313.54 446.01 1313.54 443.478C1313.54 440.945 1315.6 438.882 1318.14 438.882Z" fill="#82E3A2"/>
<path d="M1297.85 438.882C1300.39 438.882 1302.45 440.935 1302.45 443.478C1302.45 446.02 1300.39 448.073 1297.85 448.073C1295.31 448.073 1293.26 446.01 1293.26 443.478C1293.26 440.945 1295.31 438.882 1297.85 438.882Z" fill="#82E3A2"/>
<path d="M1277.58 438.882C1280.12 438.882 1282.17 440.935 1282.17 443.478C1282.17 446.02 1280.12 448.073 1277.58 448.073C1275.04 448.073 1272.99 446.01 1272.99 443.478C1272.99 440.945 1275.04 438.882 1277.58 438.882Z" fill="#82E3A2"/>
<path d="M1257.3 438.882C1259.84 438.882 1261.89 440.935 1261.89 443.478C1261.89 446.02 1259.84 448.073 1257.3 448.073C1254.76 448.073 1252.71 446.01 1252.71 443.478C1252.71 440.945 1254.76 438.882 1257.3 438.882Z" fill="#82E3A2"/>
<path d="M1237.02 438.882C1239.56 438.882 1241.61 440.935 1241.61 443.478C1241.61 446.02 1239.56 448.073 1237.02 448.073C1234.48 448.073 1232.43 446.01 1232.43 443.478C1232.43 440.945 1234.48 438.882 1237.02 438.882Z" fill="#82E3A2"/>
<path d="M1216.75 438.882C1219.29 438.882 1221.34 440.935 1221.34 443.478C1221.34 446.02 1219.29 448.073 1216.75 448.073C1214.2 448.073 1212.15 446.01 1212.15 443.478C1212.15 440.945 1214.2 438.882 1216.75 438.882Z" fill="#82E3A2"/>
<path d="M1196.46 438.882C1199 438.882 1201.06 440.935 1201.06 443.478C1201.06 446.02 1199 448.073 1196.46 448.073C1193.92 448.073 1191.87 446.01 1191.87 443.478C1191.87 440.945 1193.92 438.882 1196.46 438.882Z" fill="#82E3A2"/>
<path d="M1176.18 438.882C1178.72 438.882 1180.77 440.935 1180.77 443.478C1180.77 446.02 1178.72 448.073 1176.18 448.073C1173.64 448.073 1171.59 446.01 1171.59 443.478C1171.59 440.945 1173.64 438.882 1176.18 438.882Z" fill="#82E3A2"/>
<path d="M1155.9 438.882C1158.44 438.882 1160.49 440.935 1160.49 443.478C1160.49 446.02 1158.44 448.073 1155.9 448.073C1153.36 448.073 1151.31 446.01 1151.31 443.478C1151.31 440.945 1153.36 438.882 1155.9 438.882Z" fill="#82E3A2"/>
<path d="M1135.63 438.882C1138.17 438.882 1140.22 440.935 1140.22 443.478C1140.22 446.02 1138.17 448.073 1135.63 448.073C1133.09 448.073 1131.03 446.01 1131.03 443.478C1131.03 440.945 1133.09 438.882 1135.63 438.882Z" fill="#82E3A2"/>
<path d="M1115.34 438.882C1117.88 438.882 1119.94 440.935 1119.94 443.478C1119.94 446.02 1117.88 448.073 1115.34 448.073C1112.8 448.073 1110.75 446.01 1110.75 443.478C1110.75 440.945 1112.8 438.882 1115.34 438.882Z" fill="#82E3A2"/>
<path d="M1095.06 438.882C1097.6 438.882 1099.65 440.935 1099.65 443.478C1099.65 446.02 1097.6 448.073 1095.06 448.073C1092.52 448.073 1090.47 446.01 1090.47 443.478C1090.47 440.945 1092.52 438.882 1095.06 438.882Z" fill="#82E3A2"/>
<path d="M1074.79 438.882C1077.33 438.882 1079.38 440.935 1079.38 443.478C1079.38 446.02 1077.33 448.073 1074.79 448.073C1072.25 448.073 1070.2 446.01 1070.2 443.478C1070.2 440.945 1072.25 438.882 1074.79 438.882Z" fill="#82E3A2"/>
<path d="M1297.85 479.476C1300.39 479.476 1302.45 481.53 1302.45 484.072C1302.45 486.614 1300.39 488.668 1297.85 488.668C1295.31 488.668 1293.26 486.604 1293.26 484.072C1293.26 481.54 1295.31 479.476 1297.85 479.476Z" fill="#82E3A2"/>
<path d="M1277.58 479.476C1280.12 479.476 1282.17 481.53 1282.17 484.072C1282.17 486.614 1280.12 488.668 1277.58 488.668C1275.04 488.668 1272.99 486.604 1272.99 484.072C1272.99 481.54 1275.04 479.476 1277.58 479.476Z" fill="#82E3A2"/>
<path d="M1257.3 479.476C1259.84 479.476 1261.89 481.53 1261.89 484.072C1261.89 486.614 1259.84 488.668 1257.3 488.668C1254.76 488.668 1252.71 486.604 1252.71 484.072C1252.71 481.54 1254.76 479.476 1257.3 479.476Z" fill="#82E3A2"/>
<path d="M1237.02 479.476C1239.56 479.476 1241.61 481.53 1241.61 484.072C1241.61 486.614 1239.56 488.668 1237.02 488.668C1234.48 488.668 1232.43 486.604 1232.43 484.072C1232.43 481.54 1234.48 479.476 1237.02 479.476Z" fill="#82E3A2"/>
<path d="M1216.75 479.476C1219.29 479.476 1221.34 481.53 1221.34 484.072C1221.34 486.614 1219.29 488.668 1216.75 488.668C1214.2 488.668 1212.15 486.604 1212.15 484.072C1212.15 481.54 1214.2 479.476 1216.75 479.476Z" fill="#82E3A2"/>
<path d="M1196.46 479.476C1199 479.476 1201.06 481.53 1201.06 484.072C1201.06 486.614 1199 488.668 1196.46 488.668C1193.92 488.668 1191.87 486.604 1191.87 484.072C1191.87 481.54 1193.92 479.476 1196.46 479.476Z" fill="#82E3A2"/>
<path d="M1176.18 479.476C1178.72 479.476 1180.77 481.53 1180.77 484.072C1180.77 486.614 1178.72 488.668 1176.18 488.668C1173.64 488.668 1171.59 486.604 1171.59 484.072C1171.59 481.54 1173.64 479.476 1176.18 479.476Z" fill="#82E3A2"/>
<path d="M1155.9 479.476C1158.44 479.476 1160.49 481.53 1160.49 484.072C1160.49 486.614 1158.44 488.668 1155.9 488.668C1153.36 488.668 1151.31 486.604 1151.31 484.072C1151.31 481.54 1153.36 479.476 1155.9 479.476Z" fill="#82E3A2"/>
<path d="M1135.63 479.476C1138.17 479.476 1140.22 481.53 1140.22 484.072C1140.22 486.614 1138.17 488.668 1135.63 488.668C1133.09 488.668 1131.03 486.604 1131.03 484.072C1131.03 481.54 1133.09 479.476 1135.63 479.476Z" fill="#82E3A2"/>
<path d="M1115.34 479.476C1117.88 479.476 1119.94 481.53 1119.94 484.072C1119.94 486.614 1117.88 488.668 1115.34 488.668C1112.8 488.668 1110.75 486.604 1110.75 484.072C1110.75 481.54 1112.8 479.476 1115.34 479.476Z" fill="#82E3A2"/>
<path d="M1095.06 479.476C1097.6 479.476 1099.65 481.53 1099.65 484.072C1099.65 486.614 1097.6 488.668 1095.06 488.668C1092.52 488.668 1090.47 486.604 1090.47 484.072C1090.47 481.54 1092.52 479.476 1095.06 479.476Z" fill="#82E3A2"/>
<path d="M1074.79 479.476C1077.33 479.476 1079.38 481.53 1079.38 484.072C1079.38 486.614 1077.33 488.668 1074.79 488.668C1072.25 488.668 1070.2 486.604 1070.2 484.072C1070.2 481.54 1072.25 479.476 1074.79 479.476Z" fill="#82E3A2"/>
<path d="M1277.58 520.061C1280.12 520.061 1282.17 522.115 1282.17 524.657C1282.17 527.199 1280.12 529.253 1277.58 529.253C1275.04 529.253 1272.99 527.199 1272.99 524.657C1272.99 522.115 1275.04 520.061 1277.58 520.061Z" fill="#82E3A2"/>
<path d="M1257.3 520.061C1259.84 520.061 1261.89 522.115 1261.89 524.657C1261.89 527.199 1259.84 529.253 1257.3 529.253C1254.76 529.253 1252.71 527.199 1252.71 524.657C1252.71 522.115 1254.76 520.061 1257.3 520.061Z" fill="#82E3A2"/>
<path d="M1237.02 520.061C1239.56 520.061 1241.61 522.115 1241.61 524.657C1241.61 527.199 1239.56 529.253 1237.02 529.253C1234.48 529.253 1232.43 527.199 1232.43 524.657C1232.43 522.115 1234.48 520.061 1237.02 520.061Z" fill="#82E3A2"/>
<path d="M1216.75 520.061C1219.29 520.061 1221.34 522.115 1221.34 524.657C1221.34 527.199 1219.29 529.253 1216.75 529.253C1214.2 529.253 1212.15 527.199 1212.15 524.657C1212.15 522.115 1214.2 520.061 1216.75 520.061Z" fill="#82E3A2"/>
<path d="M1196.46 520.061C1199 520.061 1201.06 522.115 1201.06 524.657C1201.06 527.199 1199 529.253 1196.46 529.253C1193.92 529.253 1191.87 527.199 1191.87 524.657C1191.87 522.115 1193.92 520.061 1196.46 520.061Z" fill="#82E3A2"/>
<path d="M1176.18 520.061C1178.72 520.061 1180.77 522.115 1180.77 524.657C1180.77 527.199 1178.72 529.253 1176.18 529.253C1173.64 529.253 1171.59 527.199 1171.59 524.657C1171.59 522.115 1173.64 520.061 1176.18 520.061Z" fill="#82E3A2"/>
<path d="M1155.9 520.061C1158.44 520.061 1160.49 522.115 1160.49 524.657C1160.49 527.199 1158.44 529.253 1155.9 529.253C1153.36 529.253 1151.31 527.199 1151.31 524.657C1151.31 522.115 1153.36 520.061 1155.9 520.061Z" fill="#82E3A2"/>
<path d="M1135.63 520.061C1138.17 520.061 1140.22 522.115 1140.22 524.657C1140.22 527.199 1138.17 529.253 1135.63 529.253C1133.09 529.253 1131.03 527.199 1131.03 524.657C1131.03 522.115 1133.09 520.061 1135.63 520.061Z" fill="#82E3A2"/>
<path d="M1115.34 520.061C1117.88 520.061 1119.94 522.115 1119.94 524.657C1119.94 527.199 1117.88 529.253 1115.34 529.253C1112.8 529.253 1110.75 527.199 1110.75 524.657C1110.75 522.115 1112.8 520.061 1115.34 520.061Z" fill="#82E3A2"/>
<path d="M1095.06 520.061C1097.6 520.061 1099.65 522.115 1099.65 524.657C1099.65 527.199 1097.6 529.253 1095.06 529.253C1092.52 529.253 1090.47 527.199 1090.47 524.657C1090.47 522.115 1092.52 520.061 1095.06 520.061Z" fill="#82E3A2"/>
<path d="M1074.79 520.061C1077.33 520.061 1079.38 522.115 1079.38 524.657C1079.38 527.199 1077.33 529.253 1074.79 529.253C1072.25 529.253 1070.2 527.199 1070.2 524.657C1070.2 522.115 1072.25 520.061 1074.79 520.061Z" fill="#82E3A2"/>
<path d="M1064.67 418.584C1067.21 418.584 1069.26 420.638 1069.26 423.18C1069.26 423.659 1069.19 424.117 1069.05 424.546C1068.47 426.42 1066.73 427.776 1064.66 427.776C1062.12 427.776 1060.06 425.722 1060.06 423.18C1060.06 422.702 1060.13 422.243 1060.27 421.814C1060.85 419.94 1062.6 418.584 1064.67 418.584Z" fill="#82E3A2"/>
<path d="M1044.39 418.584C1046.93 418.584 1048.99 420.638 1048.99 423.18C1048.99 425.722 1046.93 427.776 1044.39 427.776C1041.85 427.776 1039.8 425.722 1039.8 423.18C1039.8 420.638 1041.85 418.584 1044.39 418.584Z" fill="#82E3A2"/>
<path d="M1024.11 418.584C1026.65 418.584 1028.7 420.638 1028.7 423.18C1028.7 425.722 1026.65 427.776 1024.11 427.776C1021.57 427.776 1019.52 425.722 1019.52 423.18C1019.52 420.638 1021.57 418.584 1024.11 418.584Z" fill="#82E3A2"/>
<path d="M1003.83 418.584C1006.37 418.584 1008.42 420.638 1008.42 423.18C1008.42 425.722 1006.37 427.776 1003.83 427.776C1001.29 427.776 999.237 425.722 999.237 423.18C999.237 420.638 1001.29 418.584 1003.83 418.584Z" fill="#82E3A2"/>
<path d="M983.547 418.584C986.088 418.584 988.14 420.638 988.14 423.18C988.14 425.722 986.088 427.776 983.547 427.776C981.007 427.776 978.955 425.722 978.955 423.18C978.955 420.638 981.007 418.584 983.547 418.584Z" fill="#82E3A2"/>
<path d="M1064.67 459.179C1067.21 459.179 1069.26 461.232 1069.26 463.774C1069.26 464.253 1069.19 464.712 1069.05 465.14C1068.47 467.014 1066.73 468.37 1064.66 468.37C1062.12 468.37 1060.06 466.317 1060.06 463.774C1060.06 463.296 1060.13 462.837 1060.27 462.409C1060.85 460.535 1062.6 459.179 1064.67 459.179Z" fill="#82E3A2"/>
<path d="M1044.39 459.179C1046.93 459.179 1048.99 461.232 1048.99 463.774C1048.99 466.317 1046.93 468.37 1044.39 468.37C1041.85 468.37 1039.8 466.317 1039.8 463.774C1039.8 461.232 1041.85 459.179 1044.39 459.179Z" fill="#82E3A2"/>
<path d="M1024.11 459.179C1026.65 459.179 1028.7 461.232 1028.7 463.774C1028.7 466.317 1026.65 468.37 1024.11 468.37C1021.57 468.37 1019.52 466.317 1019.52 463.774C1019.52 461.232 1021.57 459.179 1024.11 459.179Z" fill="#82E3A2"/>
<path d="M1003.83 459.179C1006.37 459.179 1008.42 461.232 1008.42 463.774C1008.42 466.317 1006.37 468.37 1003.83 468.37C1001.29 468.37 999.237 466.317 999.237 463.774C999.237 461.232 1001.29 459.179 1003.83 459.179Z" fill="#82E3A2"/>
<path d="M983.547 459.179C986.088 459.179 988.14 461.232 988.14 463.774C988.14 466.317 986.088 468.37 983.547 468.37C981.007 468.37 978.955 466.317 978.955 463.774C978.955 461.232 981.007 459.179 983.547 459.179Z" fill="#82E3A2"/>
<path d="M963.275 459.179C965.815 459.179 967.867 461.232 967.867 463.774C967.867 466.317 965.815 468.37 963.275 468.37C960.735 468.37 958.683 466.317 958.683 463.774C958.683 461.232 960.735 459.179 963.275 459.179Z" fill="#82E3A2"/>
<path d="M942.993 459.179C945.533 459.179 947.585 461.232 947.585 463.774C947.585 466.317 945.533 468.37 942.993 468.37C940.452 468.37 938.4 466.317 938.4 463.774C938.4 461.232 940.452 459.179 942.993 459.179Z" fill="#82E3A2"/>
<path d="M1064.67 499.763C1067.21 499.763 1069.26 501.817 1069.26 504.359C1069.26 504.838 1069.19 505.296 1069.05 505.725C1068.47 507.599 1066.73 508.955 1064.66 508.955C1062.12 508.955 1060.06 506.901 1060.06 504.359C1060.06 503.881 1060.13 503.422 1060.27 502.993C1060.85 501.119 1062.6 499.753 1064.67 499.753V499.763Z" fill="#82E3A2"/>
<path d="M1044.39 499.764C1046.93 499.764 1048.99 501.817 1048.99 504.359C1048.99 506.902 1046.93 508.955 1044.39 508.955C1041.85 508.955 1039.8 506.902 1039.8 504.359C1039.8 501.817 1041.85 499.764 1044.39 499.764Z" fill="#82E3A2"/>
<path d="M1024.11 499.764C1026.65 499.764 1028.7 501.817 1028.7 504.359C1028.7 506.902 1026.65 508.955 1024.11 508.955C1021.57 508.955 1019.52 506.902 1019.52 504.359C1019.52 501.817 1021.57 499.764 1024.11 499.764Z" fill="#82E3A2"/>
<path d="M1003.83 499.764C1006.37 499.764 1008.42 501.817 1008.42 504.359C1008.42 506.902 1006.37 508.955 1003.83 508.955C1001.29 508.955 999.237 506.902 999.237 504.359C999.237 501.817 1001.29 499.764 1003.83 499.764Z" fill="#82E3A2"/>
<path d="M983.547 499.764C986.088 499.764 988.14 501.817 988.14 504.359C988.14 506.902 986.088 508.955 983.547 508.955C981.007 508.955 978.955 506.902 978.955 504.359C978.955 501.817 981.007 499.764 983.547 499.764Z" fill="#82E3A2"/>
<path d="M963.275 499.764C965.815 499.764 967.867 501.817 967.867 504.359C967.867 506.902 965.815 508.955 963.275 508.955C960.735 508.955 958.683 506.902 958.683 504.359C958.683 501.817 960.735 499.764 963.275 499.764Z" fill="#82E3A2"/>
<path d="M942.993 499.764C945.533 499.764 947.585 501.817 947.585 504.359C947.585 506.902 945.533 508.955 942.993 508.955C940.452 508.955 938.4 506.902 938.4 504.359C938.4 501.817 940.452 499.764 942.993 499.764Z" fill="#82E3A2"/>
<path d="M922.71 499.764C925.251 499.764 927.303 501.817 927.303 504.359C927.303 506.902 925.251 508.955 922.71 508.955C920.17 508.955 918.118 506.902 918.118 504.359C918.118 501.817 920.17 499.764 922.71 499.764Z" fill="#82E3A2"/>
<path d="M902.438 499.764C904.978 499.764 907.03 501.817 907.03 504.359C907.03 506.902 904.978 508.955 902.438 508.955C899.897 508.955 897.845 506.902 897.845 504.359C897.845 501.817 899.897 499.764 902.438 499.764Z" fill="#82E3A2"/>
<path d="M1054.51 398.287C1057.05 398.287 1059.1 400.341 1059.1 402.883C1059.1 403.361 1059.03 403.82 1058.89 404.249C1058.31 406.123 1056.57 407.479 1054.5 407.479C1051.96 407.479 1049.9 405.425 1049.9 402.883C1049.9 402.404 1049.97 401.946 1050.11 401.517C1050.69 399.643 1052.43 398.287 1054.51 398.287Z" fill="#82E3A2"/>
<path d="M1034.22 398.287C1036.76 398.287 1038.82 400.341 1038.82 402.883C1038.82 405.425 1036.76 407.479 1034.22 407.479C1031.68 407.479 1029.63 405.425 1029.63 402.883C1029.63 400.341 1031.68 398.287 1034.22 398.287Z" fill="#82E3A2"/>
<path d="M1054.51 438.882C1057.05 438.882 1059.1 440.935 1059.1 443.478C1059.1 443.956 1059.03 444.415 1058.89 444.843C1058.31 446.718 1056.57 448.083 1054.5 448.083C1051.96 448.083 1049.9 446.02 1049.9 443.488C1049.9 443.009 1049.97 442.55 1050.11 442.122C1050.69 440.248 1052.43 438.892 1054.51 438.892V438.882Z" fill="#82E3A2"/>
<path d="M1034.22 438.882C1036.76 438.882 1038.82 440.935 1038.82 443.478C1038.82 446.02 1036.76 448.073 1034.22 448.073C1031.68 448.073 1029.63 446.02 1029.63 443.478C1029.63 440.935 1031.68 438.882 1034.22 438.882Z" fill="#82E3A2"/>
<path d="M1013.95 438.882C1016.49 438.882 1018.54 440.935 1018.54 443.478C1018.54 446.02 1016.49 448.073 1013.95 448.073C1011.41 448.073 1009.36 446.02 1009.36 443.478C1009.36 440.935 1011.41 438.882 1013.95 438.882Z" fill="#82E3A2"/>
<path d="M993.669 438.882C996.209 438.882 998.261 440.935 998.261 443.478C998.261 446.02 996.209 448.073 993.669 448.073C991.128 448.073 989.076 446.02 989.076 443.478C989.076 440.935 991.128 438.882 993.669 438.882Z" fill="#82E3A2"/>
<path d="M973.386 438.882C975.927 438.882 977.979 440.935 977.979 443.478C977.979 446.02 975.927 448.073 973.386 448.073C970.846 448.073 968.794 446.02 968.794 443.478C968.794 440.935 970.846 438.882 973.386 438.882Z" fill="#82E3A2"/>
<path d="M953.104 438.882C955.644 438.882 957.696 440.935 957.696 443.478C957.696 446.02 955.644 448.073 953.104 448.073C950.564 448.073 948.512 446.02 948.512 443.478C948.512 440.935 950.564 438.882 953.104 438.882Z" fill="#82E3A2"/>
<path d="M1054.51 479.466C1057.05 479.466 1059.1 481.52 1059.1 484.062C1059.1 484.541 1059.03 484.999 1058.89 485.428C1058.31 487.302 1056.57 488.658 1054.5 488.658C1051.96 488.658 1049.9 486.594 1049.9 484.062C1049.9 483.584 1049.97 483.125 1050.11 482.696C1050.69 480.822 1052.43 479.466 1054.51 479.466Z" fill="#82E3A2"/>
<path d="M1034.22 479.466C1036.76 479.466 1038.82 481.52 1038.82 484.062C1038.82 486.604 1036.76 488.658 1034.22 488.658C1031.68 488.658 1029.63 486.604 1029.63 484.062C1029.63 481.52 1031.68 479.466 1034.22 479.466Z" fill="#82E3A2"/>
<path d="M1013.95 479.466C1016.49 479.466 1018.54 481.52 1018.54 484.062C1018.54 486.604 1016.49 488.658 1013.95 488.658C1011.41 488.658 1009.36 486.604 1009.36 484.062C1009.36 481.52 1011.41 479.466 1013.95 479.466Z" fill="#82E3A2"/>
<path d="M993.669 479.466C996.209 479.466 998.261 481.52 998.261 484.062C998.261 486.604 996.209 488.658 993.669 488.658C991.128 488.658 989.076 486.604 989.076 484.062C989.076 481.52 991.128 479.466 993.669 479.466Z" fill="#82E3A2"/>
<path d="M973.386 479.466C975.927 479.466 977.979 481.52 977.979 484.062C977.979 486.604 975.927 488.658 973.386 488.658C970.846 488.658 968.794 486.604 968.794 484.062C968.794 481.52 970.846 479.466 973.386 479.466Z" fill="#82E3A2"/>
<path d="M953.104 479.466C955.644 479.466 957.696 481.52 957.696 484.062C957.696 486.604 955.644 488.658 953.104 488.658C950.564 488.658 948.512 486.604 948.512 484.062C948.512 481.52 950.564 479.466 953.104 479.466Z" fill="#82E3A2"/>
<path d="M932.832 479.466C935.372 479.466 937.424 481.52 937.424 484.062C937.424 486.604 935.372 488.658 932.832 488.658C930.291 488.658 928.239 486.604 928.239 484.062C928.239 481.52 930.291 479.466 932.832 479.466Z" fill="#82E3A2"/>
<path d="M912.549 479.466C915.089 479.466 917.142 481.52 917.142 484.062C917.142 486.604 915.089 488.658 912.549 488.658C910.009 488.658 907.957 486.604 907.957 484.062C907.957 481.52 910.009 479.466 912.549 479.466Z" fill="#82E3A2"/>
<path d="M1054.51 520.061C1057.05 520.061 1059.1 522.115 1059.1 524.657C1059.1 525.135 1059.03 525.594 1058.89 526.023C1058.31 527.897 1056.57 529.253 1054.5 529.253C1051.96 529.253 1049.9 527.199 1049.9 524.657C1049.9 524.178 1049.97 523.72 1050.11 523.291C1050.69 521.417 1052.43 520.061 1054.51 520.061Z" fill="#82E3A2"/>
<path d="M1034.22 520.061C1036.76 520.061 1038.82 522.115 1038.82 524.657C1038.82 527.199 1036.76 529.253 1034.22 529.253C1031.68 529.253 1029.63 527.199 1029.63 524.657C1029.63 522.115 1031.68 520.061 1034.22 520.061Z" fill="#82E3A2"/>
<path d="M1013.95 520.061C1016.49 520.061 1018.54 522.115 1018.54 524.657C1018.54 527.199 1016.49 529.253 1013.95 529.253C1011.41 529.253 1009.36 527.199 1009.36 524.657C1009.36 522.115 1011.41 520.061 1013.95 520.061Z" fill="#82E3A2"/>
<path d="M993.669 520.061C996.209 520.061 998.261 522.115 998.261 524.657C998.261 527.199 996.209 529.253 993.669 529.253C991.128 529.253 989.076 527.199 989.076 524.657C989.076 522.115 991.128 520.061 993.669 520.061Z" fill="#82E3A2"/>
<path d="M973.386 520.061C975.927 520.061 977.979 522.115 977.979 524.657C977.979 527.199 975.927 529.253 973.386 529.253C970.846 529.253 968.794 527.199 968.794 524.657C968.794 522.115 970.846 520.061 973.386 520.061Z" fill="#82E3A2"/>
<path d="M953.104 520.061C955.644 520.061 957.696 522.115 957.696 524.657C957.696 527.199 955.644 529.253 953.104 529.253C950.564 529.253 948.512 527.199 948.512 524.657C948.512 522.115 950.564 520.061 953.104 520.061Z" fill="#82E3A2"/>
<path d="M932.832 520.061C935.372 520.061 937.424 522.115 937.424 524.657C937.424 527.199 935.372 529.253 932.832 529.253C930.291 529.253 928.239 527.199 928.239 524.657C928.239 522.115 930.291 520.061 932.832 520.061Z" fill="#82E3A2"/>
<path d="M912.549 520.061C915.089 520.061 917.142 522.115 917.142 524.657C917.142 527.199 915.089 529.253 912.549 529.253C910.009 529.253 907.957 527.199 907.957 524.657C907.957 522.115 910.009 520.061 912.549 520.061Z" fill="#82E3A2"/>
<path d="M892.267 520.061C894.807 520.061 896.859 522.115 896.859 524.657C896.859 527.199 894.807 529.253 892.267 529.253C889.726 529.253 887.674 527.199 887.674 524.657C887.674 522.115 889.726 520.061 892.267 520.061Z" fill="#82E3A2"/>
<path d="M76.7137 362C74.1734 362 72.1213 364.054 72.1213 366.596C72.1213 369.138 74.1734 371.192 76.7137 371.192C79.254 371.192 81.3061 369.138 81.3061 366.596C81.3061 364.054 79.254 362 76.7137 362Z" fill="#82E3A2"/>
<path d="M96.9861 362C94.4458 362 92.3937 364.054 92.3937 366.596C92.3937 369.138 94.4458 371.192 96.9861 371.192C99.5264 371.192 101.579 369.138 101.579 366.596C101.579 364.054 99.5264 362 96.9861 362Z" fill="#82E3A2"/>
<path d="M117.269 362C114.728 362 112.676 364.054 112.676 366.596C112.676 369.138 114.728 371.192 117.269 371.192C119.809 371.192 121.861 369.138 121.861 366.596C121.861 364.054 119.809 362 117.269 362Z" fill="#82E3A2"/>
<path d="M137.551 362C135.011 362 132.958 364.054 132.958 366.596C132.958 369.138 135.011 371.192 137.551 371.192C140.091 371.192 142.143 369.138 142.143 366.596C142.143 364.054 140.091 362 137.551 362Z" fill="#82E3A2"/>
<path d="M157.823 362C155.283 362 153.231 364.054 153.231 366.596C153.231 369.138 155.283 371.192 157.823 371.192C160.364 371.192 162.416 369.138 162.416 366.596C162.416 364.054 160.364 362 157.823 362Z" fill="#82E3A2"/>
<path d="M178.106 362C175.565 362 173.513 364.054 173.513 366.596C173.513 369.138 175.565 371.192 178.106 371.192C180.646 371.192 182.698 369.138 182.698 366.596C182.698 364.054 180.646 362 178.106 362Z" fill="#82E3A2"/>
<path d="M76.7137 402.595C74.1734 402.595 72.1213 404.648 72.1213 407.191C72.1213 409.733 74.1734 411.786 76.7137 411.786C79.254 411.786 81.3061 409.733 81.3061 407.191C81.3061 404.648 79.254 402.595 76.7137 402.595Z" fill="#82E3A2"/>
<path d="M96.9861 402.595C94.4458 402.595 92.3937 404.648 92.3937 407.191C92.3937 409.733 94.4458 411.786 96.9861 411.786C99.5264 411.786 101.579 409.733 101.579 407.191C101.579 404.648 99.5264 402.595 96.9861 402.595Z" fill="#82E3A2"/>
<path d="M117.269 402.595C114.728 402.595 112.676 404.648 112.676 407.191C112.676 409.733 114.728 411.786 117.269 411.786C119.809 411.786 121.861 409.733 121.861 407.191C121.861 404.648 119.809 402.595 117.269 402.595Z" fill="#82E3A2"/>
<path d="M137.551 402.595C135.011 402.595 132.958 404.648 132.958 407.191C132.958 409.733 135.011 411.786 137.551 411.786C140.091 411.786 142.143 409.733 142.143 407.191C142.143 404.648 140.091 402.595 137.551 402.595Z" fill="#82E3A2"/>
<path d="M157.823 402.595C155.283 402.595 153.231 404.648 153.231 407.191C153.231 409.733 155.283 411.786 157.823 411.786C160.364 411.786 162.416 409.733 162.416 407.191C162.416 404.648 160.364 402.595 157.823 402.595Z" fill="#82E3A2"/>
<path d="M178.106 402.595C175.565 402.595 173.513 404.648 173.513 407.191C173.513 409.733 175.565 411.786 178.106 411.786C180.646 411.786 182.698 409.733 182.698 407.191C182.698 404.648 180.646 402.595 178.106 402.595Z" fill="#82E3A2"/>
<path d="M198.388 402.595C195.848 402.595 193.796 404.648 193.796 407.191C193.796 409.733 195.848 411.786 198.388 411.786C200.928 411.786 202.981 409.733 202.981 407.191C202.981 404.648 200.928 402.595 198.388 402.595Z" fill="#82E3A2"/>
<path d="M218.67 402.595C216.13 402.595 214.078 404.648 214.078 407.191C214.078 409.733 216.13 411.786 218.67 411.786C221.211 411.786 223.263 409.733 223.263 407.191C223.263 404.648 221.211 402.595 218.67 402.595Z" fill="#82E3A2"/>
<path d="M238.943 402.595C236.403 402.595 234.351 404.648 234.351 407.191C234.351 409.733 236.403 411.786 238.943 411.786C241.483 411.786 243.535 409.733 243.535 407.191C243.535 404.648 241.483 402.595 238.943 402.595Z" fill="#82E3A2"/>
<path d="M259.225 402.595C256.685 402.595 254.633 404.648 254.633 407.191C254.633 409.733 256.685 411.786 259.225 411.786C261.766 411.786 263.818 409.733 263.818 407.191C263.818 404.648 261.766 402.595 259.225 402.595Z" fill="#82E3A2"/>
<path d="M279.508 402.595C276.967 402.595 274.915 404.648 274.915 407.191C274.915 409.733 276.967 411.786 279.508 411.786C282.048 411.786 284.1 409.733 284.1 407.191C284.1 404.648 282.048 402.595 279.508 402.595Z" fill="#82E3A2"/>
<path d="M299.78 402.595C297.24 402.595 295.188 404.648 295.188 407.191C295.188 409.733 297.24 411.786 299.78 411.786C302.32 411.786 304.373 409.733 304.373 407.191C304.373 404.648 302.32 402.595 299.78 402.595Z" fill="#82E3A2"/>
<path d="M320.063 402.595C317.522 402.595 315.47 404.648 315.47 407.191C315.47 409.733 317.522 411.786 320.063 411.786C322.603 411.786 324.655 409.733 324.655 407.191C324.655 404.648 322.603 402.595 320.063 402.595Z" fill="#82E3A2"/>
<path d="M96.9861 443.179C94.4458 443.179 92.3937 445.242 92.3937 447.774C92.3937 450.307 94.4458 452.37 96.9861 452.37C99.5264 452.37 101.579 450.317 101.579 447.774C101.579 445.232 99.5264 443.179 96.9861 443.179Z" fill="#82E3A2"/>
<path d="M117.269 443.179C114.728 443.179 112.676 445.242 112.676 447.774C112.676 450.307 114.728 452.37 117.269 452.37C119.809 452.37 121.861 450.317 121.861 447.774C121.861 445.232 119.809 443.179 117.269 443.179Z" fill="#82E3A2"/>
<path d="M137.551 443.179C135.011 443.179 132.958 445.242 132.958 447.774C132.958 450.307 135.011 452.37 137.551 452.37C140.091 452.37 142.143 450.317 142.143 447.774C142.143 445.232 140.091 443.179 137.551 443.179Z" fill="#82E3A2"/>
<path d="M157.823 443.179C155.283 443.179 153.231 445.242 153.231 447.774C153.231 450.307 155.283 452.37 157.823 452.37C160.364 452.37 162.416 450.317 162.416 447.774C162.416 445.232 160.364 443.179 157.823 443.179Z" fill="#82E3A2"/>
<path d="M178.106 443.179C175.565 443.179 173.513 445.242 173.513 447.774C173.513 450.307 175.565 452.37 178.106 452.37C180.646 452.37 182.698 450.317 182.698 447.774C182.698 445.232 180.646 443.179 178.106 443.179Z" fill="#82E3A2"/>
<path d="M198.388 443.179C195.848 443.179 193.796 445.242 193.796 447.774C193.796 450.307 195.848 452.37 198.388 452.37C200.928 452.37 202.981 450.317 202.981 447.774C202.981 445.232 200.928 443.179 198.388 443.179Z" fill="#82E3A2"/>
<path d="M218.67 443.179C216.13 443.179 214.078 445.242 214.078 447.774C214.078 450.307 216.13 452.37 218.67 452.37C221.211 452.37 223.263 450.317 223.263 447.774C223.263 445.232 221.211 443.179 218.67 443.179Z" fill="#82E3A2"/>
<path d="M238.943 443.179C236.403 443.179 234.351 445.242 234.351 447.774C234.351 450.307 236.403 452.37 238.943 452.37C241.483 452.37 243.535 450.317 243.535 447.774C243.535 445.232 241.483 443.179 238.943 443.179Z" fill="#82E3A2"/>
<path d="M259.225 443.179C256.685 443.179 254.633 445.242 254.633 447.774C254.633 450.307 256.685 452.37 259.225 452.37C261.766 452.37 263.818 450.317 263.818 447.774C263.818 445.232 261.766 443.179 259.225 443.179Z" fill="#82E3A2"/>
<path d="M279.508 443.179C276.967 443.179 274.915 445.242 274.915 447.774C274.915 450.307 276.967 452.37 279.508 452.37C282.048 452.37 284.1 450.317 284.1 447.774C284.1 445.232 282.048 443.179 279.508 443.179Z" fill="#82E3A2"/>
<path d="M299.78 443.179C297.24 443.179 295.188 445.242 295.188 447.774C295.188 450.307 297.24 452.37 299.78 452.37C302.32 452.37 304.373 450.317 304.373 447.774C304.373 445.232 302.32 443.179 299.78 443.179Z" fill="#82E3A2"/>
<path d="M320.063 443.179C317.522 443.179 315.47 445.242 315.47 447.774C315.47 450.307 317.522 452.37 320.063 452.37C322.603 452.37 324.655 450.317 324.655 447.774C324.655 445.232 322.603 443.179 320.063 443.179Z" fill="#82E3A2"/>
<path d="M117.269 483.773C114.728 483.773 112.676 485.827 112.676 488.369C112.676 490.911 114.728 492.965 117.269 492.965C119.809 492.965 121.861 490.911 121.861 488.369C121.861 485.827 119.809 483.773 117.269 483.773Z" fill="#82E3A2"/>
<path d="M137.551 483.773C135.011 483.773 132.958 485.827 132.958 488.369C132.958 490.911 135.011 492.965 137.551 492.965C140.091 492.965 142.143 490.911 142.143 488.369C142.143 485.827 140.091 483.773 137.551 483.773Z" fill="#82E3A2"/>
<path d="M157.823 483.773C155.283 483.773 153.231 485.827 153.231 488.369C153.231 490.911 155.283 492.965 157.823 492.965C160.364 492.965 162.416 490.911 162.416 488.369C162.416 485.827 160.364 483.773 157.823 483.773Z" fill="#82E3A2"/>
<path d="M178.106 483.773C175.565 483.773 173.513 485.827 173.513 488.369C173.513 490.911 175.565 492.965 178.106 492.965C180.646 492.965 182.698 490.911 182.698 488.369C182.698 485.827 180.646 483.773 178.106 483.773Z" fill="#82E3A2"/>
<path d="M198.388 483.773C195.848 483.773 193.796 485.827 193.796 488.369C193.796 490.911 195.848 492.965 198.388 492.965C200.928 492.965 202.981 490.911 202.981 488.369C202.981 485.827 200.928 483.773 198.388 483.773Z" fill="#82E3A2"/>
<path d="M218.67 483.773C216.13 483.773 214.078 485.827 214.078 488.369C214.078 490.911 216.13 492.965 218.67 492.965C221.211 492.965 223.263 490.911 223.263 488.369C223.263 485.827 221.211 483.773 218.67 483.773Z" fill="#82E3A2"/>
<path d="M238.943 483.773C236.403 483.773 234.351 485.827 234.351 488.369C234.351 490.911 236.403 492.965 238.943 492.965C241.483 492.965 243.535 490.911 243.535 488.369C243.535 485.827 241.483 483.773 238.943 483.773Z" fill="#82E3A2"/>
<path d="M259.225 483.773C256.685 483.773 254.633 485.827 254.633 488.369C254.633 490.911 256.685 492.965 259.225 492.965C261.766 492.965 263.818 490.911 263.818 488.369C263.818 485.827 261.766 483.773 259.225 483.773Z" fill="#82E3A2"/>
<path d="M279.508 483.773C276.967 483.773 274.915 485.827 274.915 488.369C274.915 490.911 276.967 492.965 279.508 492.965C282.048 492.965 284.1 490.911 284.1 488.369C284.1 485.827 282.048 483.773 279.508 483.773Z" fill="#82E3A2"/>
<path d="M299.78 483.773C297.24 483.773 295.188 485.827 295.188 488.369C295.188 490.911 297.24 492.965 299.78 492.965C302.32 492.965 304.373 490.911 304.373 488.369C304.373 485.827 302.32 483.773 299.78 483.773Z" fill="#82E3A2"/>
<path d="M320.063 483.773C317.522 483.773 315.47 485.827 315.47 488.369C315.47 490.911 317.522 492.965 320.063 492.965C322.603 492.965 324.655 490.911 324.655 488.369C324.655 485.827 322.603 483.773 320.063 483.773Z" fill="#82E3A2"/>
<path d="M137.551 524.358C135.011 524.358 132.958 526.412 132.958 528.954C132.958 531.496 135.011 533.549 137.551 533.549C140.091 533.549 142.143 531.496 142.143 528.954C142.143 526.412 140.091 524.358 137.551 524.358Z" fill="#82E3A2"/>
<path d="M157.823 524.358C155.283 524.358 153.231 526.412 153.231 528.954C153.231 531.496 155.283 533.549 157.823 533.549C160.364 533.549 162.416 531.496 162.416 528.954C162.416 526.412 160.364 524.358 157.823 524.358Z" fill="#82E3A2"/>
<path d="M178.106 524.358C175.565 524.358 173.513 526.412 173.513 528.954C173.513 531.496 175.565 533.549 178.106 533.549C180.646 533.549 182.698 531.496 182.698 528.954C182.698 526.412 180.646 524.358 178.106 524.358Z" fill="#82E3A2"/>
<path d="M198.388 524.358C195.848 524.358 193.796 526.412 193.796 528.954C193.796 531.496 195.848 533.549 198.388 533.549C200.928 533.549 202.981 531.496 202.981 528.954C202.981 526.412 200.928 524.358 198.388 524.358Z" fill="#82E3A2"/>
<path d="M218.67 524.358C216.13 524.358 214.078 526.412 214.078 528.954C214.078 531.496 216.13 533.549 218.67 533.549C221.211 533.549 223.263 531.496 223.263 528.954C223.263 526.412 221.211 524.358 218.67 524.358Z" fill="#82E3A2"/>
<path d="M238.943 524.358C236.403 524.358 234.351 526.412 234.351 528.954C234.351 531.496 236.403 533.549 238.943 533.549C241.483 533.549 243.535 531.496 243.535 528.954C243.535 526.412 241.483 524.358 238.943 524.358Z" fill="#82E3A2"/>
<path d="M259.225 524.358C256.685 524.358 254.633 526.412 254.633 528.954C254.633 531.496 256.685 533.549 259.225 533.549C261.766 533.549 263.818 531.496 263.818 528.954C263.818 526.412 261.766 524.358 259.225 524.358Z" fill="#82E3A2"/>
<path d="M279.508 524.358C276.967 524.358 274.915 526.412 274.915 528.954C274.915 531.496 276.967 533.549 279.508 533.549C282.048 533.549 284.1 531.496 284.1 528.954C284.1 526.412 282.048 524.358 279.508 524.358Z" fill="#82E3A2"/>
<path d="M299.78 524.358C297.24 524.358 295.188 526.412 295.188 528.954C295.188 531.496 297.24 533.549 299.78 533.549C302.32 533.549 304.373 531.496 304.373 528.954C304.373 526.412 302.32 524.358 299.78 524.358Z" fill="#82E3A2"/>
<path d="M320.063 524.358C317.522 524.358 315.47 526.412 315.47 528.954C315.47 531.496 317.522 533.549 320.063 533.549C322.603 533.549 324.655 531.496 324.655 528.954C324.655 526.412 322.603 524.358 320.063 524.358Z" fill="#82E3A2"/>
<path d="M66.5924 382.297C64.0521 382.297 62 384.351 62 386.893C62 389.435 64.0521 391.489 66.5924 391.489C69.1327 391.489 71.1849 389.435 71.1849 386.893C71.1849 384.351 69.1327 382.297 66.5924 382.297Z" fill="#82E3A2"/>
<path d="M86.8748 382.297C84.3345 382.297 82.2824 384.351 82.2824 386.893C82.2824 389.435 84.3345 391.489 86.8748 391.489C89.4151 391.489 91.4672 389.435 91.4672 386.893C91.4672 384.351 89.4151 382.297 86.8748 382.297Z" fill="#82E3A2"/>
<path d="M107.157 382.297C104.617 382.297 102.565 384.351 102.565 386.893C102.565 389.435 104.617 391.489 107.157 391.489C109.697 391.489 111.75 389.435 111.75 386.893C111.75 384.351 109.697 382.297 107.157 382.297Z" fill="#82E3A2"/>
<path d="M127.43 382.297C124.889 382.297 122.837 384.351 122.837 386.893C122.837 389.435 124.889 391.489 127.43 391.489C129.97 391.489 132.022 389.435 132.022 386.893C132.022 384.351 129.97 382.297 127.43 382.297Z" fill="#82E3A2"/>
<path d="M147.712 382.297C145.172 382.297 143.12 384.351 143.12 386.893C143.12 389.435 145.172 391.489 147.712 391.489C150.252 391.489 152.304 389.435 152.304 386.893C152.304 384.351 150.252 382.297 147.712 382.297Z" fill="#82E3A2"/>
<path d="M167.994 382.297C165.454 382.297 163.402 384.351 163.402 386.893C163.402 389.435 165.454 391.489 167.994 391.489C170.535 391.489 172.587 389.435 172.587 386.893C172.587 384.351 170.535 382.297 167.994 382.297Z" fill="#82E3A2"/>
<path d="M188.267 382.297C185.727 382.297 183.674 384.351 183.674 386.893C183.674 389.435 185.727 391.489 188.267 391.489C190.807 391.489 192.859 389.435 192.859 386.893C192.859 384.351 190.807 382.297 188.267 382.297Z" fill="#82E3A2"/>
<path d="M208.549 382.297C206.009 382.297 203.957 384.351 203.957 386.893C203.957 389.435 206.009 391.489 208.549 391.489C211.09 391.489 213.142 389.435 213.142 386.893C213.142 384.351 211.09 382.297 208.549 382.297Z" fill="#82E3A2"/>
<path d="M228.832 382.297C226.291 382.297 224.239 384.351 224.239 386.893C224.239 389.435 226.291 391.489 228.832 391.489C231.372 391.489 233.424 389.435 233.424 386.893C233.424 384.351 231.372 382.297 228.832 382.297Z" fill="#82E3A2"/>
<path d="M249.114 382.297C246.574 382.297 244.522 384.351 244.522 386.893C244.522 389.435 246.574 391.489 249.114 391.489C251.654 391.489 253.706 389.435 253.706 386.893C253.706 384.351 251.654 382.297 249.114 382.297Z" fill="#82E3A2"/>
<path d="M269.386 382.297C266.846 382.297 264.794 384.351 264.794 386.893C264.794 389.435 266.846 391.489 269.386 391.489C271.927 391.489 273.979 389.435 273.979 386.893C273.979 384.351 271.927 382.297 269.386 382.297Z" fill="#82E3A2"/>
<path d="M289.669 382.297C287.129 382.297 285.076 384.351 285.076 386.893C285.076 389.435 287.129 391.489 289.669 391.489C292.209 391.489 294.261 389.435 294.261 386.893C294.261 384.351 292.209 382.297 289.669 382.297Z" fill="#82E3A2"/>
<path d="M309.951 382.297C307.411 382.297 305.359 384.351 305.359 386.893C305.359 389.435 307.411 391.489 309.951 391.489C312.491 391.489 314.544 389.435 314.544 386.893C314.544 384.351 312.491 382.297 309.951 382.297Z" fill="#82E3A2"/>
<path d="M330.224 382.297C327.683 382.297 325.631 384.351 325.631 386.893C325.631 389.435 327.683 391.489 330.224 391.489C332.764 391.489 334.816 389.435 334.816 386.893C334.816 384.351 332.764 382.297 330.224 382.297Z" fill="#82E3A2"/>
<path d="M86.8748 422.882C84.3345 422.882 82.2824 424.935 82.2824 427.478C82.2824 430.02 84.3345 432.073 86.8748 432.073C89.4151 432.073 91.4672 430.01 91.4672 427.478C91.4672 424.945 89.4151 422.882 86.8748 422.882Z" fill="#82E3A2"/>
<path d="M107.157 422.882C104.617 422.882 102.565 424.935 102.565 427.478C102.565 430.02 104.617 432.073 107.157 432.073C109.697 432.073 111.75 430.01 111.75 427.478C111.75 424.945 109.697 422.882 107.157 422.882Z" fill="#82E3A2"/>
<path d="M127.43 422.882C124.889 422.882 122.837 424.935 122.837 427.478C122.837 430.02 124.889 432.073 127.43 432.073C129.97 432.073 132.022 430.01 132.022 427.478C132.022 424.945 129.97 422.882 127.43 422.882Z" fill="#82E3A2"/>
<path d="M147.712 422.882C145.172 422.882 143.12 424.935 143.12 427.478C143.12 430.02 145.172 432.073 147.712 432.073C150.252 432.073 152.304 430.01 152.304 427.478C152.304 424.945 150.252 422.882 147.712 422.882Z" fill="#82E3A2"/>
<path d="M167.994 422.882C165.454 422.882 163.402 424.935 163.402 427.478C163.402 430.02 165.454 432.073 167.994 432.073C170.535 432.073 172.587 430.01 172.587 427.478C172.587 424.945 170.535 422.882 167.994 422.882Z" fill="#82E3A2"/>
<path d="M188.267 422.882C185.727 422.882 183.674 424.935 183.674 427.478C183.674 430.02 185.727 432.073 188.267 432.073C190.807 432.073 192.859 430.01 192.859 427.478C192.859 424.945 190.807 422.882 188.267 422.882Z" fill="#82E3A2"/>
<path d="M208.549 422.882C206.009 422.882 203.957 424.935 203.957 427.478C203.957 430.02 206.009 432.073 208.549 432.073C211.09 432.073 213.142 430.01 213.142 427.478C213.142 424.945 211.09 422.882 208.549 422.882Z" fill="#82E3A2"/>
<path d="M228.832 422.882C226.291 422.882 224.239 424.935 224.239 427.478C224.239 430.02 226.291 432.073 228.832 432.073C231.372 432.073 233.424 430.01 233.424 427.478C233.424 424.945 231.372 422.882 228.832 422.882Z" fill="#82E3A2"/>
<path d="M249.114 422.882C246.574 422.882 244.522 424.935 244.522 427.478C244.522 430.02 246.574 432.073 249.114 432.073C251.654 432.073 253.706 430.01 253.706 427.478C253.706 424.945 251.654 422.882 249.114 422.882Z" fill="#82E3A2"/>
<path d="M269.386 422.882C266.846 422.882 264.794 424.935 264.794 427.478C264.794 430.02 266.846 432.073 269.386 432.073C271.927 432.073 273.979 430.01 273.979 427.478C273.979 424.945 271.927 422.882 269.386 422.882Z" fill="#82E3A2"/>
<path d="M289.669 422.882C287.129 422.882 285.076 424.935 285.076 427.478C285.076 430.02 287.129 432.073 289.669 432.073C292.209 432.073 294.261 430.01 294.261 427.478C294.261 424.945 292.209 422.882 289.669 422.882Z" fill="#82E3A2"/>
<path d="M309.951 422.882C307.411 422.882 305.359 424.935 305.359 427.478C305.359 430.02 307.411 432.073 309.951 432.073C312.491 432.073 314.544 430.01 314.544 427.478C314.544 424.945 312.491 422.882 309.951 422.882Z" fill="#82E3A2"/>
<path d="M330.224 422.882C327.683 422.882 325.631 424.935 325.631 427.478C325.631 430.02 327.683 432.073 330.224 432.073C332.764 432.073 334.816 430.01 334.816 427.478C334.816 424.945 332.764 422.882 330.224 422.882Z" fill="#82E3A2"/>
<path d="M107.157 463.476C104.617 463.476 102.565 465.53 102.565 468.072C102.565 470.614 104.617 472.668 107.157 472.668C109.697 472.668 111.75 470.604 111.75 468.072C111.75 465.54 109.697 463.476 107.157 463.476Z" fill="#82E3A2"/>
<path d="M127.43 463.476C124.889 463.476 122.837 465.53 122.837 468.072C122.837 470.614 124.889 472.668 127.43 472.668C129.97 472.668 132.022 470.604 132.022 468.072C132.022 465.54 129.97 463.476 127.43 463.476Z" fill="#82E3A2"/>
<path d="M147.712 463.476C145.172 463.476 143.12 465.53 143.12 468.072C143.12 470.614 145.172 472.668 147.712 472.668C150.252 472.668 152.304 470.604 152.304 468.072C152.304 465.54 150.252 463.476 147.712 463.476Z" fill="#82E3A2"/>
<path d="M167.994 463.476C165.454 463.476 163.402 465.53 163.402 468.072C163.402 470.614 165.454 472.668 167.994 472.668C170.535 472.668 172.587 470.604 172.587 468.072C172.587 465.54 170.535 463.476 167.994 463.476Z" fill="#82E3A2"/>
<path d="M188.267 463.476C185.727 463.476 183.674 465.53 183.674 468.072C183.674 470.614 185.727 472.668 188.267 472.668C190.807 472.668 192.859 470.604 192.859 468.072C192.859 465.54 190.807 463.476 188.267 463.476Z" fill="#82E3A2"/>
<path d="M208.549 463.476C206.009 463.476 203.957 465.53 203.957 468.072C203.957 470.614 206.009 472.668 208.549 472.668C211.09 472.668 213.142 470.604 213.142 468.072C213.142 465.54 211.09 463.476 208.549 463.476Z" fill="#82E3A2"/>
<path d="M228.832 463.476C226.291 463.476 224.239 465.53 224.239 468.072C224.239 470.614 226.291 472.668 228.832 472.668C231.372 472.668 233.424 470.604 233.424 468.072C233.424 465.54 231.372 463.476 228.832 463.476Z" fill="#82E3A2"/>
<path d="M249.114 463.476C246.574 463.476 244.522 465.53 244.522 468.072C244.522 470.614 246.574 472.668 249.114 472.668C251.654 472.668 253.706 470.604 253.706 468.072C253.706 465.54 251.654 463.476 249.114 463.476Z" fill="#82E3A2"/>
<path d="M269.386 463.476C266.846 463.476 264.794 465.53 264.794 468.072C264.794 470.614 266.846 472.668 269.386 472.668C271.927 472.668 273.979 470.604 273.979 468.072C273.979 465.54 271.927 463.476 269.386 463.476Z" fill="#82E3A2"/>
<path d="M289.669 463.476C287.129 463.476 285.076 465.53 285.076 468.072C285.076 470.614 287.129 472.668 289.669 472.668C292.209 472.668 294.261 470.604 294.261 468.072C294.261 465.54 292.209 463.476 289.669 463.476Z" fill="#82E3A2"/>
<path d="M309.951 463.476C307.411 463.476 305.359 465.53 305.359 468.072C305.359 470.614 307.411 472.668 309.951 472.668C312.491 472.668 314.544 470.604 314.544 468.072C314.544 465.54 312.491 463.476 309.951 463.476Z" fill="#82E3A2"/>
<path d="M330.224 463.476C327.683 463.476 325.631 465.53 325.631 468.072C325.631 470.614 327.683 472.668 330.224 472.668C332.764 472.668 334.816 470.604 334.816 468.072C334.816 465.54 332.764 463.476 330.224 463.476Z" fill="#82E3A2"/>
<path d="M127.43 504.061C124.889 504.061 122.837 506.115 122.837 508.657C122.837 511.199 124.889 513.253 127.43 513.253C129.97 513.253 132.022 511.199 132.022 508.657C132.022 506.115 129.97 504.061 127.43 504.061Z" fill="#82E3A2"/>
<path d="M147.712 504.061C145.172 504.061 143.12 506.115 143.12 508.657C143.12 511.199 145.172 513.253 147.712 513.253C150.252 513.253 152.304 511.199 152.304 508.657C152.304 506.115 150.252 504.061 147.712 504.061Z" fill="#82E3A2"/>
<path d="M167.994 504.061C165.454 504.061 163.402 506.115 163.402 508.657C163.402 511.199 165.454 513.253 167.994 513.253C170.535 513.253 172.587 511.199 172.587 508.657C172.587 506.115 170.535 504.061 167.994 504.061Z" fill="#82E3A2"/>
<path d="M188.267 504.061C185.727 504.061 183.674 506.115 183.674 508.657C183.674 511.199 185.727 513.253 188.267 513.253C190.807 513.253 192.859 511.199 192.859 508.657C192.859 506.115 190.807 504.061 188.267 504.061Z" fill="#82E3A2"/>
<path d="M208.549 504.061C206.009 504.061 203.957 506.115 203.957 508.657C203.957 511.199 206.009 513.253 208.549 513.253C211.09 513.253 213.142 511.199 213.142 508.657C213.142 506.115 211.09 504.061 208.549 504.061Z" fill="#82E3A2"/>
<path d="M228.832 504.061C226.291 504.061 224.239 506.115 224.239 508.657C224.239 511.199 226.291 513.253 228.832 513.253C231.372 513.253 233.424 511.199 233.424 508.657C233.424 506.115 231.372 504.061 228.832 504.061Z" fill="#82E3A2"/>
<path d="M249.114 504.061C246.574 504.061 244.522 506.115 244.522 508.657C244.522 511.199 246.574 513.253 249.114 513.253C251.654 513.253 253.706 511.199 253.706 508.657C253.706 506.115 251.654 504.061 249.114 504.061Z" fill="#82E3A2"/>
<path d="M269.386 504.061C266.846 504.061 264.794 506.115 264.794 508.657C264.794 511.199 266.846 513.253 269.386 513.253C271.927 513.253 273.979 511.199 273.979 508.657C273.979 506.115 271.927 504.061 269.386 504.061Z" fill="#82E3A2"/>
<path d="M289.669 504.061C287.129 504.061 285.076 506.115 285.076 508.657C285.076 511.199 287.129 513.253 289.669 513.253C292.209 513.253 294.261 511.199 294.261 508.657C294.261 506.115 292.209 504.061 289.669 504.061Z" fill="#82E3A2"/>
<path d="M309.951 504.061C307.411 504.061 305.359 506.115 305.359 508.657C305.359 511.199 307.411 513.253 309.951 513.253C312.491 513.253 314.544 511.199 314.544 508.657C314.544 506.115 312.491 504.061 309.951 504.061Z" fill="#82E3A2"/>
<path d="M330.224 504.061C327.683 504.061 325.631 506.115 325.631 508.657C325.631 511.199 327.683 513.253 330.224 513.253C332.764 513.253 334.816 511.199 334.816 508.657C334.816 506.115 332.764 504.061 330.224 504.061Z" fill="#82E3A2"/>
<path d="M340.345 402.584C337.805 402.584 335.752 404.638 335.752 407.18C335.752 407.659 335.822 408.117 335.962 408.546C336.539 410.42 338.283 411.776 340.355 411.776C342.895 411.776 344.947 409.722 344.947 407.18C344.947 406.702 344.878 406.243 344.738 405.814C344.16 403.94 342.417 402.584 340.345 402.584Z" fill="#82E3A2"/>
<path d="M360.617 402.584C358.077 402.584 356.025 404.638 356.025 407.18C356.025 409.722 358.077 411.776 360.617 411.776C363.158 411.776 365.21 409.722 365.21 407.18C365.21 404.638 363.158 402.584 360.617 402.584Z" fill="#82E3A2"/>
<path d="M380.9 402.584C378.359 402.584 376.307 404.638 376.307 407.18C376.307 409.722 378.359 411.776 380.9 411.776C383.44 411.776 385.492 409.722 385.492 407.18C385.492 404.638 383.44 402.584 380.9 402.584Z" fill="#82E3A2"/>
<path d="M401.182 402.584C398.642 402.584 396.59 404.638 396.59 407.18C396.59 409.722 398.642 411.776 401.182 411.776C403.722 411.776 405.775 409.722 405.775 407.18C405.775 404.638 403.722 402.584 401.182 402.584Z" fill="#82E3A2"/>
<path d="M421.465 402.584C418.924 402.584 416.872 404.638 416.872 407.18C416.872 409.722 418.924 411.776 421.465 411.776C424.005 411.776 426.057 409.722 426.057 407.18C426.057 404.638 424.005 402.584 421.465 402.584Z" fill="#82E3A2"/>
<path d="M340.345 443.179C337.805 443.179 335.752 445.232 335.752 447.774C335.752 448.253 335.822 448.712 335.962 449.14C336.539 451.014 338.283 452.37 340.355 452.37C342.895 452.37 344.947 450.317 344.947 447.774C344.947 447.296 344.878 446.837 344.738 446.409C344.16 444.535 342.417 443.179 340.345 443.179Z" fill="#82E3A2"/>
<path d="M360.617 443.179C358.077 443.179 356.025 445.232 356.025 447.774C356.025 450.317 358.077 452.37 360.617 452.37C363.158 452.37 365.21 450.317 365.21 447.774C365.21 445.232 363.158 443.179 360.617 443.179Z" fill="#82E3A2"/>
<path d="M380.9 443.179C378.359 443.179 376.307 445.232 376.307 447.774C376.307 450.317 378.359 452.37 380.9 452.37C383.44 452.37 385.492 450.317 385.492 447.774C385.492 445.232 383.44 443.179 380.9 443.179Z" fill="#82E3A2"/>
<path d="M401.182 443.179C398.642 443.179 396.59 445.232 396.59 447.774C396.59 450.317 398.642 452.37 401.182 452.37C403.722 452.37 405.775 450.317 405.775 447.774C405.775 445.232 403.722 443.179 401.182 443.179Z" fill="#82E3A2"/>
<path d="M421.465 443.179C418.924 443.179 416.872 445.232 416.872 447.774C416.872 450.317 418.924 452.37 421.465 452.37C424.005 452.37 426.057 450.317 426.057 447.774C426.057 445.232 424.005 443.179 421.465 443.179Z" fill="#82E3A2"/>
<path d="M441.737 443.179C439.197 443.179 437.145 445.232 437.145 447.774C437.145 450.317 439.197 452.37 441.737 452.37C444.277 452.37 446.329 450.317 446.329 447.774C446.329 445.232 444.277 443.179 441.737 443.179Z" fill="#82E3A2"/>
<path d="M462.019 443.179C459.479 443.179 457.427 445.232 457.427 447.774C457.427 450.317 459.479 452.37 462.019 452.37C464.56 452.37 466.612 450.317 466.612 447.774C466.612 445.232 464.56 443.179 462.019 443.179Z" fill="#82E3A2"/>
<path d="M340.345 483.763C337.805 483.763 335.752 485.817 335.752 488.359C335.752 488.838 335.822 489.296 335.962 489.725C336.539 491.599 338.283 492.955 340.355 492.955C342.895 492.955 344.947 490.901 344.947 488.359C344.947 487.881 344.878 487.422 344.738 486.993C344.16 485.119 342.417 483.753 340.345 483.753V483.763Z" fill="#82E3A2"/>
<path d="M360.617 483.764C358.077 483.764 356.025 485.817 356.025 488.359C356.025 490.902 358.077 492.955 360.617 492.955C363.158 492.955 365.21 490.902 365.21 488.359C365.21 485.817 363.158 483.764 360.617 483.764Z" fill="#82E3A2"/>
<path d="M380.9 483.764C378.359 483.764 376.307 485.817 376.307 488.359C376.307 490.902 378.359 492.955 380.9 492.955C383.44 492.955 385.492 490.902 385.492 488.359C385.492 485.817 383.44 483.764 380.9 483.764Z" fill="#82E3A2"/>
<path d="M401.182 483.764C398.642 483.764 396.59 485.817 396.59 488.359C396.59 490.902 398.642 492.955 401.182 492.955C403.722 492.955 405.775 490.902 405.775 488.359C405.775 485.817 403.722 483.764 401.182 483.764Z" fill="#82E3A2"/>
<path d="M421.465 483.764C418.924 483.764 416.872 485.817 416.872 488.359C416.872 490.902 418.924 492.955 421.465 492.955C424.005 492.955 426.057 490.902 426.057 488.359C426.057 485.817 424.005 483.764 421.465 483.764Z" fill="#82E3A2"/>
<path d="M441.737 483.764C439.197 483.764 437.145 485.817 437.145 488.359C437.145 490.902 439.197 492.955 441.737 492.955C444.277 492.955 446.329 490.902 446.329 488.359C446.329 485.817 444.277 483.764 441.737 483.764Z" fill="#82E3A2"/>
<path d="M462.019 483.764C459.479 483.764 457.427 485.817 457.427 488.359C457.427 490.902 459.479 492.955 462.019 492.955C464.56 492.955 466.612 490.902 466.612 488.359C466.612 485.817 464.56 483.764 462.019 483.764Z" fill="#82E3A2"/>
<path d="M482.302 483.764C479.761 483.764 477.709 485.817 477.709 488.359C477.709 490.902 479.761 492.955 482.302 492.955C484.842 492.955 486.894 490.902 486.894 488.359C486.894 485.817 484.842 483.764 482.302 483.764Z" fill="#82E3A2"/>
<path d="M502.574 483.764C500.034 483.764 497.982 485.817 497.982 488.359C497.982 490.902 500.034 492.955 502.574 492.955C505.114 492.955 507.167 490.902 507.167 488.359C507.167 485.817 505.114 483.764 502.574 483.764Z" fill="#82E3A2"/>
<path d="M340.345 524.348C337.805 524.348 335.752 526.412 335.752 528.944C335.752 529.422 335.822 529.881 335.962 530.31C336.539 532.184 338.283 533.54 340.355 533.54C342.895 533.54 344.947 531.486 344.947 528.944C344.947 528.465 344.878 528.007 344.738 527.578C344.16 525.704 342.417 524.348 340.345 524.348Z" fill="#82E3A2"/>
<path d="M360.617 524.348C358.077 524.348 356.025 526.412 356.025 528.944C356.025 531.476 358.077 533.54 360.617 533.54C363.158 533.54 365.21 531.486 365.21 528.944C365.21 526.402 363.158 524.348 360.617 524.348Z" fill="#82E3A2"/>
<path d="M380.9 524.348C378.359 524.348 376.307 526.412 376.307 528.944C376.307 531.476 378.359 533.54 380.9 533.54C383.44 533.54 385.492 531.486 385.492 528.944C385.492 526.402 383.44 524.348 380.9 524.348Z" fill="#82E3A2"/>
<path d="M401.182 524.348C398.642 524.348 396.59 526.412 396.59 528.944C396.59 531.476 398.642 533.54 401.182 533.54C403.722 533.54 405.775 531.486 405.775 528.944C405.775 526.402 403.722 524.348 401.182 524.348Z" fill="#82E3A2"/>
<path d="M421.465 524.348C418.924 524.348 416.872 526.412 416.872 528.944C416.872 531.476 418.924 533.54 421.465 533.54C424.005 533.54 426.057 531.486 426.057 528.944C426.057 526.402 424.005 524.348 421.465 524.348Z" fill="#82E3A2"/>
<path d="M441.737 524.348C439.197 524.348 437.145 526.412 437.145 528.944C437.145 531.476 439.197 533.54 441.737 533.54C444.277 533.54 446.329 531.486 446.329 528.944C446.329 526.402 444.277 524.348 441.737 524.348Z" fill="#82E3A2"/>
<path d="M462.019 524.348C459.479 524.348 457.427 526.412 457.427 528.944C457.427 531.476 459.479 533.54 462.019 533.54C464.56 533.54 466.612 531.486 466.612 528.944C466.612 526.402 464.56 524.348 462.019 524.348Z" fill="#82E3A2"/>
<path d="M482.302 524.348C479.761 524.348 477.709 526.412 477.709 528.944C477.709 531.476 479.761 533.54 482.302 533.54C484.842 533.54 486.894 531.486 486.894 528.944C486.894 526.402 484.842 524.348 482.302 524.348Z" fill="#82E3A2"/>
<path d="M502.574 524.348C500.034 524.348 497.982 526.412 497.982 528.944C497.982 531.476 500.034 533.54 502.574 533.54C505.114 533.54 507.167 531.486 507.167 528.944C507.167 526.402 505.114 524.348 502.574 524.348Z" fill="#82E3A2"/>
<path d="M522.857 524.348C520.316 524.348 518.264 526.412 518.264 528.944C518.264 531.476 520.316 533.54 522.857 533.54C525.397 533.54 527.449 531.486 527.449 528.944C527.449 526.402 525.397 524.348 522.857 524.348Z" fill="#82E3A2"/>
<path d="M350.506 382.287C347.966 382.287 345.914 384.341 345.914 386.883C345.914 387.361 345.983 387.82 346.123 388.249C346.701 390.123 348.444 391.479 350.516 391.479C353.056 391.479 355.108 389.425 355.108 386.883C355.108 386.404 355.039 385.946 354.899 385.517C354.321 383.643 352.578 382.287 350.506 382.287Z" fill="#82E3A2"/>
<path d="M370.788 382.287C368.248 382.287 366.196 384.341 366.196 386.883C366.196 389.425 368.248 391.479 370.788 391.479C373.329 391.479 375.381 389.425 375.381 386.883C375.381 384.341 373.329 382.287 370.788 382.287Z" fill="#82E3A2"/>
<path d="M350.506 422.882C347.966 422.882 345.914 424.935 345.914 427.478C345.914 427.956 345.983 428.415 346.123 428.843C346.701 430.718 348.444 432.083 350.516 432.083C353.056 432.083 355.108 430.02 355.108 427.488C355.108 427.009 355.039 426.55 354.899 426.122C354.321 424.248 352.578 422.892 350.506 422.892V422.882Z" fill="#82E3A2"/>
<path d="M370.788 422.882C368.248 422.882 366.196 424.935 366.196 427.478C366.196 430.02 368.248 432.073 370.788 432.073C373.329 432.073 375.381 430.02 375.381 427.478C375.381 424.935 373.329 422.882 370.788 422.882Z" fill="#82E3A2"/>
<path d="M391.061 422.882C388.521 422.882 386.468 424.935 386.468 427.478C386.468 430.02 388.521 432.073 391.061 432.073C393.601 432.073 395.653 430.02 395.653 427.478C395.653 424.935 393.601 422.882 391.061 422.882Z" fill="#82E3A2"/>
<path d="M411.343 422.882C408.803 422.882 406.751 424.935 406.751 427.478C406.751 430.02 408.803 432.073 411.343 432.073C413.884 432.073 415.936 430.02 415.936 427.478C415.936 424.935 413.884 422.882 411.343 422.882Z" fill="#82E3A2"/>
<path d="M431.626 422.882C429.085 422.882 427.033 424.935 427.033 427.478C427.033 430.02 429.085 432.073 431.626 432.073C434.166 432.073 436.218 430.02 436.218 427.478C436.218 424.935 434.166 422.882 431.626 422.882Z" fill="#82E3A2"/>
<path d="M451.908 422.882C449.368 422.882 447.316 424.935 447.316 427.478C447.316 430.02 449.368 432.073 451.908 432.073C454.448 432.073 456.5 430.02 456.5 427.478C456.5 424.935 454.448 422.882 451.908 422.882Z" fill="#82E3A2"/>
<path d="M350.506 463.466C347.966 463.466 345.914 465.52 345.914 468.062C345.914 468.541 345.983 468.999 346.123 469.428C346.701 471.302 348.444 472.658 350.516 472.658C353.056 472.658 355.108 470.594 355.108 468.062C355.108 467.584 355.039 467.125 354.899 466.696C354.321 464.822 352.578 463.466 350.506 463.466Z" fill="#82E3A2"/>
<path d="M370.788 463.466C368.248 463.466 366.196 465.52 366.196 468.062C366.196 470.604 368.248 472.658 370.788 472.658C373.329 472.658 375.381 470.604 375.381 468.062C375.381 465.52 373.329 463.466 370.788 463.466Z" fill="#82E3A2"/>
<path d="M391.061 463.466C388.521 463.466 386.468 465.52 386.468 468.062C386.468 470.604 388.521 472.658 391.061 472.658C393.601 472.658 395.653 470.604 395.653 468.062C395.653 465.52 393.601 463.466 391.061 463.466Z" fill="#82E3A2"/>
<path d="M411.343 463.466C408.803 463.466 406.751 465.52 406.751 468.062C406.751 470.604 408.803 472.658 411.343 472.658C413.884 472.658 415.936 470.604 415.936 468.062C415.936 465.52 413.884 463.466 411.343 463.466Z" fill="#82E3A2"/>
<path d="M431.626 463.466C429.085 463.466 427.033 465.52 427.033 468.062C427.033 470.604 429.085 472.658 431.626 472.658C434.166 472.658 436.218 470.604 436.218 468.062C436.218 465.52 434.166 463.466 431.626 463.466Z" fill="#82E3A2"/>
<path d="M451.908 463.466C449.368 463.466 447.316 465.52 447.316 468.062C447.316 470.604 449.368 472.658 451.908 472.658C454.448 472.658 456.5 470.604 456.5 468.062C456.5 465.52 454.448 463.466 451.908 463.466Z" fill="#82E3A2"/>
<path d="M472.18 463.466C469.64 463.466 467.588 465.52 467.588 468.062C467.588 470.604 469.64 472.658 472.18 472.658C474.721 472.658 476.773 470.604 476.773 468.062C476.773 465.52 474.721 463.466 472.18 463.466Z" fill="#82E3A2"/>
<path d="M492.463 463.466C489.923 463.466 487.87 465.52 487.87 468.062C487.87 470.604 489.923 472.658 492.463 472.658C495.003 472.658 497.055 470.604 497.055 468.062C497.055 465.52 495.003 463.466 492.463 463.466Z" fill="#82E3A2"/>
<path d="M350.506 504.061C347.966 504.061 345.914 506.115 345.914 508.657C345.914 509.135 345.983 509.594 346.123 510.023C346.701 511.897 348.444 513.253 350.516 513.253C353.056 513.253 355.108 511.199 355.108 508.657C355.108 508.178 355.039 507.72 354.899 507.291C354.321 505.417 352.578 504.061 350.506 504.061Z" fill="#82E3A2"/>
<path d="M370.788 504.061C368.248 504.061 366.196 506.115 366.196 508.657C366.196 511.199 368.248 513.253 370.788 513.253C373.329 513.253 375.381 511.199 375.381 508.657C375.381 506.115 373.329 504.061 370.788 504.061Z" fill="#82E3A2"/>
<path d="M391.061 504.061C388.521 504.061 386.468 506.115 386.468 508.657C386.468 511.199 388.521 513.253 391.061 513.253C393.601 513.253 395.653 511.199 395.653 508.657C395.653 506.115 393.601 504.061 391.061 504.061Z" fill="#82E3A2"/>
<path d="M411.343 504.061C408.803 504.061 406.751 506.115 406.751 508.657C406.751 511.199 408.803 513.253 411.343 513.253C413.884 513.253 415.936 511.199 415.936 508.657C415.936 506.115 413.884 504.061 411.343 504.061Z" fill="#82E3A2"/>
<path d="M431.626 504.061C429.085 504.061 427.033 506.115 427.033 508.657C427.033 511.199 429.085 513.253 431.626 513.253C434.166 513.253 436.218 511.199 436.218 508.657C436.218 506.115 434.166 504.061 431.626 504.061Z" fill="#82E3A2"/>
<path d="M451.908 504.061C449.368 504.061 447.316 506.115 447.316 508.657C447.316 511.199 449.368 513.253 451.908 513.253C454.448 513.253 456.5 511.199 456.5 508.657C456.5 506.115 454.448 504.061 451.908 504.061Z" fill="#82E3A2"/>
<path d="M472.18 504.061C469.64 504.061 467.588 506.115 467.588 508.657C467.588 511.199 469.64 513.253 472.18 513.253C474.721 513.253 476.773 511.199 476.773 508.657C476.773 506.115 474.721 504.061 472.18 504.061Z" fill="#82E3A2"/>
<path d="M492.463 504.061C489.923 504.061 487.87 506.115 487.87 508.657C487.87 511.199 489.923 513.253 492.463 513.253C495.003 513.253 497.055 511.199 497.055 508.657C497.055 506.115 495.003 504.061 492.463 504.061Z" fill="#82E3A2"/>
<path d="M512.745 504.061C510.205 504.061 508.153 506.115 508.153 508.657C508.153 511.199 510.205 513.253 512.745 513.253C515.285 513.253 517.338 511.199 517.338 508.657C517.338 506.115 515.285 504.061 512.745 504.061Z" fill="#82E3A2"/>
</svg>
