<svg width="122" height="34" viewBox="0 0 122 34" fill="none" xmlns="http://www.w3.org/2000/svg">
<rect x="11.5" y="5.43896" width="110" height="23" rx="11.5" fill="#209547"/>
<rect x="11.5" y="5.43896" width="110" height="23" rx="11.5" stroke="#D9F7E3"/>
<g clip-path="url(#clip0_7338_577)">
<path d="M37.4428 21.375V21.3778H37.4413C37.4413 21.3778 37.4428 21.3778 37.4428 21.375Z" fill="white"/>
<path d="M44.545 10.939C44.545 10.939 42.662 12.5972 43.7089 14.8362C43.7089 14.8362 45.3365 13.7066 44.545 10.939Z" fill="white"/>
<path d="M46.9291 13.9313C46.9291 13.9313 45.1415 13.5647 44.3013 15.1531C44.3013 15.1531 45.6692 15.6023 46.9291 13.9313Z" fill="white"/>
<path d="M54.9504 11.0217H49.2242C48.8142 11.0217 48.4825 11.3534 48.4825 11.7635V22.1433C48.4825 22.5534 48.8142 22.885 49.2242 22.885H49.7487C50.1588 22.885 50.4905 22.5534 50.4905 22.1433V18.5862C50.4905 18.3129 50.7119 18.0914 50.9853 18.0914H54.5212C54.9313 18.0914 55.263 17.7597 55.263 17.3497V16.9672C55.263 16.5571 54.9313 16.2254 54.5212 16.2254H50.9853C50.7119 16.2254 50.4905 16.004 50.4905 15.7295V13.3825C50.4905 13.1091 50.7119 12.8877 50.9853 12.8877H54.9493C55.3594 12.8877 55.6911 12.556 55.6911 12.146V11.7635C55.6911 11.3534 55.3594 11.0217 54.9493 11.0217H54.9504Z" fill="white"/>
<path d="M65.2583 11.0217H57.9438C57.5337 11.0217 57.202 11.3534 57.202 11.7635V12.146C57.202 12.556 57.5337 12.8877 57.9438 12.8877H60.1022C60.3756 12.8877 60.597 13.1091 60.597 13.3825V22.1433C60.597 22.5534 60.9287 22.885 61.3388 22.885H61.8633C62.2733 22.885 62.605 22.5534 62.605 22.1433V13.3815C62.605 13.1091 62.8275 12.8877 63.0998 12.8877H65.2583C65.6683 12.8877 66 12.556 66 12.146V11.7635C66 11.3534 65.6683 11.0217 65.2583 11.0217Z" fill="white"/>
<path d="M46.9651 15.6501H45.7614C45.6682 15.649 44.4538 15.6554 42.9407 15.9807L41.488 11.6702C41.3577 11.2824 40.9942 11.0217 40.5841 11.0217H39.6146C39.3465 11.0217 39.106 11.1902 39.0159 11.4435L35.035 22.4358C35.035 22.4358 35.0307 22.4453 35.0297 22.4495L35.0127 22.4951C35.0127 22.4951 35.0116 22.4972 35.0116 22.4983C34.9576 22.6996 35.106 22.9105 35.3253 22.9168L35.9526 22.937C35.9685 22.938 36.0246 22.9391 36.1147 22.9391C36.2758 22.9391 36.5481 22.9338 36.9009 22.9105H36.902C38.0972 22.8289 40.2143 22.528 42.0708 21.4482C42.2499 21.3444 42.4226 21.2342 42.591 21.1197L42.9736 22.2991C43.0869 22.6487 43.4122 22.885 43.7789 22.885H44.5291C44.8915 22.885 45.1468 22.529 45.0313 22.1857L44.2101 19.7497C45.6162 18.3086 46.3802 16.8125 46.4247 16.7245L46.9651 15.6501ZM40.1645 13.6474L41.097 16.5189C40.6308 16.6959 40.1656 16.9089 39.7227 17.1664C39.3508 17.3815 39.0032 17.6167 38.68 17.8625L40.1645 13.6474ZM43.6676 18.1391C43.2374 18.6477 42.715 19.1775 42.11 19.6384C41.862 19.8281 41.6014 20.0061 41.3259 20.1661C39.9823 20.947 38.5232 21.2554 37.4424 21.3772H37.4413C37.4413 21.3772 37.4424 21.3772 37.4424 21.3751C38.0707 20.4925 39.0223 19.2866 40.4676 18.4495C40.8162 18.2472 41.1839 18.0766 41.5558 17.9314C42.1863 17.6866 42.8305 17.516 43.4186 17.3984C43.7556 17.3317 44.0734 17.2808 44.3606 17.2437C44.1656 17.5203 43.9346 17.8254 43.6676 18.1391Z" fill="white"/>
</g>
<path d="M76.48 22.099C75.3067 22.099 74.2987 21.8643 73.456 21.395C72.624 20.915 71.984 20.243 71.536 19.379C71.088 18.5043 70.864 17.475 70.864 16.291C70.864 15.4056 70.992 14.611 71.248 13.907C71.504 13.1923 71.872 12.5843 72.352 12.083C72.832 11.571 73.4187 11.1816 74.112 10.915C74.816 10.6376 75.6053 10.499 76.48 10.499C77.0667 10.499 77.6427 10.5736 78.208 10.723C78.7733 10.8723 79.2693 11.0856 79.696 11.363C79.92 11.5016 80.0693 11.6723 80.144 11.875C80.2187 12.067 80.2347 12.259 80.192 12.451C80.1493 12.6323 80.0587 12.787 79.92 12.915C79.792 13.043 79.6267 13.1176 79.424 13.139C79.232 13.1496 79.0187 13.0803 78.784 12.931C78.4533 12.7176 78.096 12.563 77.712 12.467C77.328 12.371 76.9387 12.323 76.544 12.323C75.7867 12.323 75.1467 12.4776 74.624 12.787C74.1013 13.0963 73.7067 13.5443 73.44 14.131C73.1733 14.7176 73.04 15.4376 73.04 16.291C73.04 17.1336 73.1733 17.8536 73.44 18.451C73.7067 19.0483 74.1013 19.5016 74.624 19.811C75.1467 20.1203 75.7867 20.275 76.544 20.275C76.9493 20.275 77.3493 20.227 77.744 20.131C78.1387 20.0243 78.512 19.8643 78.864 19.651C79.0987 19.5123 79.3067 19.4536 79.488 19.475C79.68 19.4856 79.84 19.5496 79.968 19.667C80.096 19.7843 80.1813 19.9336 80.224 20.115C80.2667 20.2856 80.256 20.467 80.192 20.659C80.128 20.8403 80 21.0003 79.808 21.139C79.3813 21.4483 78.8693 21.6883 78.272 21.859C77.6853 22.019 77.088 22.099 76.48 22.099ZM81.9846 22.067C81.7286 22.067 81.5206 22.0083 81.3606 21.891C81.2113 21.7736 81.1206 21.619 81.0886 21.427C81.0566 21.2243 81.094 21.0003 81.2006 20.755L85.4246 11.395C85.5633 11.0856 85.7286 10.867 85.9206 10.739C86.1233 10.6003 86.3526 10.531 86.6086 10.531C86.854 10.531 87.0726 10.6003 87.2646 10.739C87.4673 10.867 87.638 11.0856 87.7766 11.395L92.0166 20.755C92.134 21.0003 92.1766 21.2243 92.1446 21.427C92.1126 21.6296 92.022 21.7896 91.8726 21.907C91.7233 22.0136 91.526 22.067 91.2806 22.067C90.982 22.067 90.7473 21.9976 90.5766 21.859C90.4166 21.7096 90.2726 21.4856 90.1446 21.187L89.1046 18.771L89.9686 19.331H83.2166L84.0806 18.771L83.0566 21.187C82.918 21.4963 82.774 21.7203 82.6246 21.859C82.4753 21.9976 82.262 22.067 81.9846 22.067ZM86.5766 12.883L84.3366 18.211L83.9206 17.699H89.2646L88.8646 18.211L86.6086 12.883H86.5766ZM94.8029 22.067C94.4722 22.067 94.2162 21.9763 94.0349 21.795C93.8642 21.603 93.7789 21.3416 93.7789 21.011V11.699C93.7789 11.3576 93.8695 11.1016 94.0509 10.931C94.2322 10.7496 94.4882 10.659 94.8189 10.659H98.6749C99.9122 10.659 100.867 10.9576 101.539 11.555C102.211 12.1416 102.547 12.9683 102.547 14.035C102.547 14.7283 102.392 15.3256 102.083 15.827C101.784 16.3283 101.347 16.7123 100.771 16.979C100.195 17.2456 99.4962 17.379 98.6749 17.379L98.8189 17.139H99.3469C99.7842 17.139 100.163 17.2456 100.483 17.459C100.814 17.6723 101.102 18.0083 101.347 18.467L102.547 20.691C102.675 20.915 102.734 21.1336 102.723 21.347C102.712 21.5603 102.632 21.7363 102.483 21.875C102.334 22.003 102.115 22.067 101.827 22.067C101.539 22.067 101.304 22.0083 101.123 21.891C100.942 21.763 100.782 21.571 100.643 21.315L99.0269 18.339C98.8349 17.9763 98.6055 17.7363 98.3389 17.619C98.0829 17.491 97.7522 17.427 97.3469 17.427H95.8269V21.011C95.8269 21.3416 95.7415 21.603 95.5709 21.795C95.4002 21.9763 95.1442 22.067 94.8029 22.067ZM95.8269 15.907H98.3229C99.0589 15.907 99.6135 15.7576 99.9869 15.459C100.371 15.1496 100.563 14.691 100.563 14.083C100.563 13.4856 100.371 13.0376 99.9869 12.739C99.6135 12.4296 99.0589 12.275 98.3229 12.275H95.8269V15.907ZM105.836 21.939C105.484 21.939 105.212 21.8483 105.02 21.667C104.838 21.475 104.748 21.203 104.748 20.851V11.747C104.748 11.395 104.838 11.1283 105.02 10.947C105.212 10.755 105.484 10.659 105.836 10.659H111.548C111.814 10.659 112.017 10.7283 112.156 10.867C112.305 11.0056 112.38 11.203 112.38 11.459C112.38 11.7256 112.305 11.9336 112.156 12.083C112.017 12.2216 111.814 12.291 111.548 12.291H106.716V15.395H111.196C111.473 15.395 111.681 15.4643 111.82 15.603C111.958 15.7416 112.028 15.9443 112.028 16.211C112.028 16.4776 111.958 16.6803 111.82 16.819C111.681 16.9576 111.473 17.027 111.196 17.027H106.716V20.307H111.548C111.814 20.307 112.017 20.3763 112.156 20.515C112.305 20.6536 112.38 20.8563 112.38 21.123C112.38 21.3896 112.305 21.5923 112.156 21.731C112.017 21.8696 111.814 21.939 111.548 21.939H105.836Z" fill="white"/>
<g clip-path="url(#clip1_7338_577)">
<path d="M1.20938 14.2885C2.13318 15.5468 2.00784 17.2974 0.913823 18.4081C-0.744611 20.0923 -0.0455695 22.9513 2.19894 23.6638C3.67904 24.1338 4.59743 25.6244 4.35951 27.172C3.99897 29.5183 6.22955 31.4165 8.46014 30.6618C9.93134 30.164 11.5422 30.8254 12.2513 32.2184C13.3264 34.3305 16.2362 34.5433 17.6014 32.6092C18.5017 31.3337 20.1903 30.9132 21.5752 31.6195C23.675 32.6908 26.1532 31.1366 26.1311 28.7621C26.1164 27.1962 27.2375 25.8543 28.7695 25.6045C31.0921 25.2254 32.1916 22.498 30.7908 20.5901C29.867 19.3318 29.9923 17.5812 31.0863 16.4705C32.7448 14.7863 32.0457 11.9273 29.8012 11.2148C28.3211 10.7448 27.4027 9.2542 27.6406 7.70662C28.0012 5.36027 25.7706 3.46211 23.54 4.21716C22.0688 4.71493 20.458 4.05358 19.7489 2.6606C18.6738 0.548494 15.7639 0.335722 14.3987 2.2698C13.4985 3.54526 11.8099 3.96573 10.425 3.25949C8.32513 2.18821 5.84696 3.74242 5.86901 6.11688C5.88371 7.68281 4.76261 9.02464 3.23068 9.2745C0.90802 9.65358 -0.1918 12.381 1.20938 14.2889V14.2885Z" fill="#D9F7E3"/>
<path d="M23.4103 11.2919C23.0486 10.9265 22.4625 10.9265 22.1008 11.2919L13.2156 20.2675L9.89953 16.9177C9.53783 16.5523 8.95175 16.5523 8.59004 16.9177L7.62678 17.8907C7.26507 18.2561 7.26507 18.8482 7.62678 19.2136L13.1955 24.839L13.216 24.8597L24.3744 13.5878C24.7361 13.2224 24.7361 12.6303 24.3744 12.2649L23.4111 11.2919H23.4103Z" fill="#209547"/>
</g>
<defs>
<clipPath id="clip0_7338_577">
<rect width="31" height="12" fill="white" transform="translate(35 10.939)"/>
</clipPath>
<clipPath id="clip1_7338_577">
<rect width="32" height="33" fill="white" transform="translate(0 0.938965)"/>
</clipPath>
</defs>
</svg>
